  0
SECTION
  2
HEADER
  9
$ACADVER
  1
AC1032
  9
$ACADMAINTVER
 90
4
  9
$DWGCODEPAGE
  3
ANSI_1252
  9
$LASTSAVEDBY
  1
ezdxf
  9
$REQUIREDVERSIONS
160
0
  9
$INSBASE
 10
0.0
 20
0.0
 30
0.0
  9
$EXTMIN
 10
1e+20
 20
1e+20
 30
1e+20
  9
$EXTMAX
 10
-1e+20
 20
-1e+20
 30
-1e+20
  9
$LIMMIN
 10
0.0
 20
0.0
  9
$LIMMAX
 10
420.0
 20
297.0
  9
$ORTHOMODE
 70
0
  9
$REGENMODE
 70
1
  9
$FILLMODE
 70
1
  9
$QTEXTMODE
 70
0
  9
$MIRRTEXT
 70
1
  9
$LTSCALE
 40
1.0
  9
$ATTMODE
 70
1
  9
$TEXTSIZE
 40
2.5
  9
$TRACEWID
 40
1.0
  9
$TEXTSTYLE
  7
Standard
  9
$CLAYER
  8
0
  9
$CELTYPE
  6
ByLayer
  9
$CECOLOR
 62
256
  9
$CELTSCALE
 40
1.0
  9
$DISPSILH
 70
0
  9
$DIMSCALE
 40
1.0
  9
$DIMASZ
 40
2.5
  9
$DIMEXO
 40
0.625
  9
$DIMDLI
 40
3.75
  9
$DIMRND
 40
0.0
  9
$DIMDLE
 40
0.0
  9
$DIMEXE
 40
1.25
  9
$DIMTP
 40
0.0
  9
$DIMTM
 40
0.0
  9
$DIMTXT
 40
2.5
  9
$DIMCEN
 40
2.5
  9
$DIMTSZ
 40
0.0
  9
$DIMTOL
 70
0
  9
$DIMLIM
 70
0
  9
$DIMTIH
 70
0
  9
$DIMTOH
 70
0
  9
$DIMSE1
 70
0
  9
$DIMSE2
 70
0
  9
$DIMTAD
 70
1
  9
$DIMZIN
 70
8
  9
$DIMBLK
  1

  9
$DIMASO
 70
1
  9
$DIMSHO
 70
1
  9
$DIMPOST
  1

  9
$DIMAPOST
  1

  9
$DIMALT
 70
0
  9
$DIMALTD
 70
3
  9
$DIMALTF
 40
0.03937007874
  9
$DIMLFAC
 40
1.0
  9
$DIMTOFL
 70
1
  9
$DIMTVP
 40
0.0
  9
$DIMTIX
 70
0
  9
$DIMSOXD
 70
0
  9
$DIMSAH
 70
0
  9
$DIMBLK1
  1

  9
$DIMBLK2
  1

  9
$DIMSTYLE
  2
ISO-25
  9
$DIMCLRD
 70
0
  9
$DIMCLRE
 70
0
  9
$DIMCLRT
 70
0
  9
$DIMTFAC
 40
1.0
  9
$DIMGAP
 40
0.625
  9
$DIMJUST
 70
0
  9
$DIMSD1
 70
0
  9
$DIMSD2
 70
0
  9
$DIMTOLJ
 70
0
  9
$DIMTZIN
 70
8
  9
$DIMALTZ
 70
0
  9
$DIMALTTZ
 70
0
  9
$DIMUPT
 70
0
  9
$DIMDEC
 70
2
  9
$DIMTDEC
 70
2
  9
$DIMALTU
 70
2
  9
$DIMALTTD
 70
3
  9
$DIMTXSTY
  7
Standard
  9
$DIMAUNIT
 70
0
  9
$DIMADEC
 70
0
  9
$DIMALTRND
 40
0.0
  9
$DIMAZIN
 70
0
  9
$DIMDSEP
 70
44
  9
$DIMATFIT
 70
3
  9
$DIMFRAC
 70
0
  9
$DIMLDRBLK
  1

  9
$DIMLUNIT
 70
2
  9
$DIMLWD
 70
-2
  9
$DIMLWE
 70
-2
  9
$DIMTMOVE
 70
0
  9
$DIMFXL
 40
1.0
  9
$DIMFXLON
 70
0
  9
$DIMJOGANG
 40
0.785398163397
  9
$DIMTFILL
 70
0
  9
$DIMTFILLCLR
 70
0
  9
$DIMARCSYM
 70
0
  9
$DIMLTYPE
  6

  9
$DIMLTEX1
  6

  9
$DIMLTEX2
  6

  9
$DIMTXTDIRECTION
 70
0
  9
$LUNITS
 70
2
  9
$LUPREC
 70
4
  9
$SKETCHINC
 40
1.0
  9
$FILLETRAD
 40
10.0
  9
$AUNITS
 70
0
  9
$AUPREC
 70
2
  9
$MENU
  1
.
  9
$ELEVATION
 40
0.0
  9
$PELEVATION
 40
0.0
  9
$THICKNESS
 40
0.0
  9
$LIMCHECK
 70
0
  9
$CHAMFERA
 40
0.0
  9
$CHAMFERB
 40
0.0
  9
$CHAMFERC
 40
0.0
  9
$CHAMFERD
 40
0.0
  9
$SKPOLY
 70
0
  9
$TDCREATE
 40
2461108.880729167
  9
$TDUCREATE
 40
2458532.153996898
  9
$TDUPDATE
 40
2461108.880729167
  9
$TDUUPDATE
 40
2458532.1544311
  9
$TDINDWG
 40
0.0
  9
$TDUSRTIMER
 40
0.0
  9
$USRTIMER
 70
1
  9
$ANGBASE
 50
0.0
  9
$ANGDIR
 70
0
  9
$PDMODE
 70
0
  9
$PDSIZE
 40
0.0
  9
$PLINEWID
 40
0.0
  9
$SPLFRAME
 70
0
  9
$SPLINETYPE
 70
6
  9
$SPLINESEGS
 70
8
  9
$HANDSEED
  5
2E5
  9
$SURFTAB1
 70
6
  9
$SURFTAB2
 70
6
  9
$SURFTYPE
 70
6
  9
$SURFU
 70
6
  9
$SURFV
 70
6
  9
$UCSBASE
  2

  9
$UCSNAME
  2

  9
$UCSORG
 10
0.0
 20
0.0
 30
0.0
  9
$UCSXDIR
 10
1.0
 20
0.0
 30
0.0
  9
$UCSYDIR
 10
0.0
 20
1.0
 30
0.0
  9
$UCSORTHOREF
  2

  9
$UCSORTHOVIEW
 70
0
  9
$UCSORGTOP
 10
0.0
 20
0.0
 30
0.0
  9
$UCSORGBOTTOM
 10
0.0
 20
0.0
 30
0.0
  9
$UCSORGLEFT
 10
0.0
 20
0.0
 30
0.0
  9
$UCSORGRIGHT
 10
0.0
 20
0.0
 30
0.0
  9
$UCSORGFRONT
 10
0.0
 20
0.0
 30
0.0
  9
$UCSORGBACK
 10
0.0
 20
0.0
 30
0.0
  9
$PUCSBASE
  2

  9
$PUCSNAME
  2

  9
$PUCSORG
 10
0.0
 20
0.0
 30
0.0
  9
$PUCSXDIR
 10
1.0
 20
0.0
 30
0.0
  9
$PUCSYDIR
 10
0.0
 20
1.0
 30
0.0
  9
$PUCSORTHOREF
  2

  9
$PUCSORTHOVIEW
 70
0
  9
$PUCSORGTOP
 10
0.0
 20
0.0
 30
0.0
  9
$PUCSORGBOTTOM
 10
0.0
 20
0.0
 30
0.0
  9
$PUCSORGLEFT
 10
0.0
 20
0.0
 30
0.0
  9
$PUCSORGRIGHT
 10
0.0
 20
0.0
 30
0.0
  9
$PUCSORGFRONT
 10
0.0
 20
0.0
 30
0.0
  9
$PUCSORGBACK
 10
0.0
 20
0.0
 30
0.0
  9
$USERI1
 70
0
  9
$USERI2
 70
0
  9
$USERI3
 70
0
  9
$USERI4
 70
0
  9
$USERI5
 70
0
  9
$USERR1
 40
0.0
  9
$USERR2
 40
0.0
  9
$USERR3
 40
0.0
  9
$USERR4
 40
0.0
  9
$USERR5
 40
0.0
  9
$WORLDVIEW
 70
1
  9
$SHADEDGE
 70
3
  9
$SHADEDIF
 70
70
  9
$TILEMODE
 70
1
  9
$MAXACTVP
 70
64
  9
$PINSBASE
 10
0.0
 20
0.0
 30
0.0
  9
$PLIMCHECK
 70
0
  9
$PEXTMIN
 10
1e+20
 20
1e+20
 30
1e+20
  9
$PEXTMAX
 10
-1e+20
 20
-1e+20
 30
-1e+20
  9
$PLIMMIN
 10
0.0
 20
0.0
  9
$PLIMMAX
 10
420.0
 20
297.0
  9
$UNITMODE
 70
0
  9
$VISRETAIN
 70
1
  9
$PLINEGEN
 70
0
  9
$PSLTSCALE
 70
1
  9
$TREEDEPTH
 70
3020
  9
$CMLSTYLE
  2
Standard
  9
$CMLJUST
 70
0
  9
$CMLSCALE
 40
20.0
  9
$PROXYGRAPHICS
 70
1
  9
$MEASUREMENT
 70
1
  9
$CELWEIGHT
370
-1
  9
$ENDCAPS
280
0
  9
$JOINSTYLE
280
0
  9
$LWDISPLAY
290
0
  9
$INSUNITS
 70
6
  9
$HYPERLINKBASE
  1

  9
$STYLESHEET
  1

  9
$XEDIT
290
1
  9
$CEPSNTYPE
380
0
  9
$PSTYLEMODE
290
1
  9
$FINGERPRINTGUID
  2
{0C6B46C9-6FC3-4BD5-96B0-AEEA8CD4783A}
  9
$VERSIONGUID
  2
{1F708F5C-FB18-4F9E-A61F-2AFAF7AC167D}
  9
$EXTNAMES
290
1
  9
$PSVPSCALE
 40
0.0
  9
$OLESTARTUP
290
0
  9
$SORTENTS
280
127
  9
$INDEXCTL
280
0
  9
$HIDETEXT
280
1
  9
$XCLIPFRAME
280
1
  9
$HALOGAP
280
0
  9
$OBSCOLOR
 70
257
  9
$OBSLTYPE
280
0
  9
$INTERSECTIONDISPLAY
280
0
  9
$INTERSECTIONCOLOR
 70
257
  9
$DIMASSOC
280
2
  9
$PROJECTNAME
  1

  9
$CAMERADISPLAY
290
0
  9
$LENSLENGTH
 40
50.0
  9
$CAMERAHEIGHT
 40
0.0
  9
$STEPSPERSEC
 40
24.0
  9
$STEPSIZE
 40
100.0
  9
$3DDWFPREC
 40
2.0
  9
$PSOLWIDTH
 40
0.005
  9
$PSOLHEIGHT
 40
0.08
  9
$LOFTANG1
 40
1.570796326795
  9
$LOFTANG2
 40
1.570796326795
  9
$LOFTMAG1
 40
0.0
  9
$LOFTMAG2
 40
0.0
  9
$LOFTPARAM
 70
7
  9
$LOFTNORMALS
280
1
  9
$LATITUDE
 40
37.795
  9
$LONGITUDE
 40
-122.394
  9
$NORTHDIRECTION
 40
0.0
  9
$TIMEZONE
 70
-8000
  9
$LIGHTGLYPHDISPLAY
280
1
  9
$TILEMODELIGHTSYNCH
280
1
  9
$CMATERIAL
347
20
  9
$SOLIDHIST
280
0
  9
$SHOWHIST
280
1
  9
$DWFFRAME
280
2
  9
$DGNFRAME
280
2
  9
$REALWORLDSCALE
290
1
  9
$INTERFERECOLOR
 62
256
  9
$CSHADOW
280
0
  9
$SHADOWPLANELOCATION
 40
0.0
  0
ENDSEC
  0
SECTION
  2
CLASSES
  0
CLASS
  1
ACDBDICTIONARYWDFLT
  2
AcDbDictionaryWithDefault
  3
ObjectDBX Classes
 90
0
 91
0
280
0
281
0
  0
CLASS
  1
SUN
  2
AcDbSun
  3
SCENEOE
 90
1153
 91
0
280
0
281
0
  0
CLASS
  1
VISUALSTYLE
  2
AcDbVisualStyle
  3
ObjectDBX Classes
 90
4095
 91
0
280
0
281
0
  0
CLASS
  1
MATERIAL
  2
AcDbMaterial
  3
ObjectDBX Classes
 90
1153
 91
0
280
0
281
0
  0
CLASS
  1
SCALE
  2
AcDbScale
  3
ObjectDBX Classes
 90
1153
 91
0
280
0
281
0
  0
CLASS
  1
TABLESTYLE
  2
AcDbTableStyle
  3
ObjectDBX Classes
 90
4095
 91
0
280
0
281
0
  0
CLASS
  1
MLEADERSTYLE
  2
AcDbMLeaderStyle
  3
ACDB_MLEADERSTYLE_CLASS
 90
4095
 91
0
280
0
281
0
  0
CLASS
  1
DICTIONARYVAR
  2
AcDbDictionaryVar
  3
ObjectDBX Classes
 90
0
 91
0
280
0
281
0
  0
CLASS
  1
CELLSTYLEMAP
  2
AcDbCellStyleMap
  3
ObjectDBX Classes
 90
1152
 91
0
280
0
281
0
  0
CLASS
  1
MENTALRAYRENDERSETTINGS
  2
AcDbMentalRayRenderSettings
  3
SCENEOE
 90
1024
 91
0
280
0
281
0
  0
CLASS
  1
ACDBDETAILVIEWSTYLE
  2
AcDbDetailViewStyle
  3
ObjectDBX Classes
 90
1025
 91
0
280
0
281
0
  0
CLASS
  1
ACDBSECTIONVIEWSTYLE
  2
AcDbSectionViewStyle
  3
ObjectDBX Classes
 90
1025
 91
0
280
0
281
0
  0
CLASS
  1
RASTERVARIABLES
  2
AcDbRasterVariables
  3
ISM
 90
0
 91
0
280
0
281
0
  0
CLASS
  1
ACDBPLACEHOLDER
  2
AcDbPlaceHolder
  3
ObjectDBX Classes
 90
0
 91
0
280
0
281
0
  0
CLASS
  1
LAYOUT
  2
AcDbLayout
  3
ObjectDBX Classes
 90
0
 91
0
280
0
281
0
  0
ENDSEC
  0
SECTION
  2
TABLES
  0
TABLE
  2
VPORT
  5
8
330
0
100
AcDbSymbolTable
 70
1
  0
VPORT
  5
23
330
8
100
AcDbSymbolTableRecord
100
AcDbViewportTableRecord
  2
*Active
 70
0
 10
0.0
 20
0.0
 11
1.0
 21
1.0
 12
0.0
 22
0.0
 13
0.0
 23
0.0
 14
0.5
 24
0.5
 15
0.5
 25
0.5
 16
0.0
 26
0.0
 36
1.0
 17
0.0
 27
0.0
 37
0.0
 40
1000.0
 41
1.34
 42
50.0
 43
0.0
 44
0.0
 50
0.0
 51
0.0
 71
0
 72
1000
 73
1
 74
3
 75
0
 76
0
 77
0
 78
0
281
0
 65
0
146
0.0
  0
ENDTAB
  0
TABLE
  2
LTYPE
  5
2
330
0
100
AcDbSymbolTable
 70
3
  0
LTYPE
  5
24
330
2
100
AcDbSymbolTableRecord
100
AcDbLinetypeTableRecord
  2
ByBlock
 70
0
  3

 72
65
 73
0
 40
0.0
  0
LTYPE
  5
25
330
2
100
AcDbSymbolTableRecord
100
AcDbLinetypeTableRecord
  2
ByLayer
 70
0
  3

 72
65
 73
0
 40
0.0
  0
LTYPE
  5
26
330
2
100
AcDbSymbolTableRecord
100
AcDbLinetypeTableRecord
  2
Continuous
 70
0
  3

 72
65
 73
0
 40
0.0
  0
ENDTAB
  0
TABLE
  2
LAYER
  5
1
330
0
100
AcDbSymbolTable
 70
7
  0
LAYER
  5
27
330
1
100
AcDbSymbolTableRecord
100
AcDbLayerTableRecord
  2
0
 70
0
 62
7
  6
Continuous
370
-3
390
13
347
21
  0
LAYER
  5
28
330
1
100
AcDbSymbolTableRecord
100
AcDbLayerTableRecord
  2
Defpoints
 70
0
 62
7
  6
Continuous
290
0
370
-3
390
13
347
21
  0
LAYER
  5
2F
330
1
100
AcDbSymbolTableRecord
100
AcDbLayerTableRecord
  2
TEXT
 70
0
 62
7
  6
Continuous
370
-3
390
13
347
21
  0
LAYER
  5
30
330
1
100
AcDbSymbolTableRecord
100
AcDbLayerTableRecord
  2
DIM
 70
0
 62
7
  6
Continuous
370
-3
390
13
347
21
  0
LAYER
  5
31
330
1
100
AcDbSymbolTableRecord
100
AcDbLayerTableRecord
  2
TRACE_MAIN
 70
0
 62
7
  6
Continuous
370
-3
390
13
347
21
  0
LAYER
  5
32
330
1
100
AcDbSymbolTableRecord
100
AcDbLayerTableRecord
  2
TRACE_SYMBOL
 70
0
 62
7
  6
Continuous
370
-3
390
13
347
21
  0
LAYER
  5
33
330
1
100
AcDbSymbolTableRecord
100
AcDbLayerTableRecord
  2
ISO
 70
0
 62
7
  6
Continuous
370
-3
390
13
347
21
  0
ENDTAB
  0
TABLE
  2
STYLE
  5
5
330
0
100
AcDbSymbolTable
 70
1
  0
STYLE
  5
29
330
5
100
AcDbSymbolTableRecord
100
AcDbTextStyleTableRecord
  2
Standard
 70
0
 40
0.0
 41
1.0
 50
0.0
 71
0
 42
2.5
  3
txt
  4

  0
ENDTAB
  0
TABLE
  2
VIEW
  5
7
330
0
100
AcDbSymbolTable
 70
0
  0
ENDTAB
  0
TABLE
  2
UCS
  5
6
330
0
100
AcDbSymbolTable
 70
0
  0
ENDTAB
  0
TABLE
  2
APPID
  5
3
330
0
100
AcDbSymbolTable
 70
3
  0
APPID
  5
2A
330
3
100
AcDbSymbolTableRecord
100
AcDbRegAppTableRecord
  2
ACAD
 70
0
  0
APPID
  5
2E2
330
3
100
AcDbSymbolTableRecord
100
AcDbRegAppTableRecord
  2
HATCHBACKGROUNDCOLOR
 70
0
  0
APPID
  5
2E3
330
3
100
AcDbSymbolTableRecord
100
AcDbRegAppTableRecord
  2
EZDXF
 70
0
  0
ENDTAB
  0
TABLE
  2
DIMSTYLE
  5
4
330
0
100
AcDbSymbolTable
 70
1
100
AcDbDimStyleTable
  0
DIMSTYLE
105
2B
330
4
100
AcDbSymbolTableRecord
100
AcDbDimStyleTableRecord
  2
Standard
 70
0
 40
1.0
 41
2.5
 42
0.625
 43
3.75
 44
1.25
 45
0.0
 46
0.0
 47
0.0
 48
0.0
 49
2.5
140
2.5
141
2.5
142
0.0
143
0.03937007874
144
1.0
145
0.0
146
1.0
147
0.625
148
0.0
 69
0
 70
0
 71
0
 72
0
 73
0
 74
0
 75
0
 76
0
 77
1
 78
8
 79
3
170
0
171
3
172
1
173
0
174
0
175
0
176
0
177
0
178
0
179
2
271
2
272
2
273
2
274
3
275
0
276
0
277
2
278
44
279
0
280
0
281
0
282
0
283
0
284
8
285
0
286
0
288
0
289
3
290
0
371
-2
372
-2
  0
ENDTAB
  0
TABLE
  2
BLOCK_RECORD
  5
9
330
0
100
AcDbSymbolTable
 70
2
  0
BLOCK_RECORD
  5
17
330
9
100
AcDbSymbolTableRecord
100
AcDbBlockTableRecord
  2
*Model_Space
340
1A
 70
0
280
1
281
0
  0
BLOCK_RECORD
  5
1B
330
9
100
AcDbSymbolTableRecord
100
AcDbBlockTableRecord
  2
*Paper_Space
340
1E
 70
0
280
1
281
0
  0
ENDTAB
  0
ENDSEC
  0
SECTION
  2
BLOCKS
  0
BLOCK
  5
18
330
17
100
AcDbEntity
  8
0
100
AcDbBlockBegin
  2
*Model_Space
 70
0
 10
0.0
 20
0.0
 30
0.0
  3
*Model_Space
  1

  0
ENDBLK
  5
19
330
17
100
AcDbEntity
  8
0
100
AcDbBlockEnd
  0
BLOCK
  5
1C
330
1B
100
AcDbEntity
  8
0
100
AcDbBlockBegin
  2
*Paper_Space
 70
0
 10
0.0
 20
0.0
 30
0.0
  3
*Paper_Space
  1

  0
ENDBLK
  5
1D
330
1B
100
AcDbEntity
  8
0
100
AcDbBlockEnd
  0
ENDSEC
  0
SECTION
  2
ENTITIES
  0
LINE
  5
34
330
17
100
AcDbEntity
  8
TRACE_MAIN
100
AcDbLine
 10
333.0
 20
84.0
 30
0.0
 11
683.0
 21
84.0
 31
0.0
  0
LINE
  5
35
330
17
100
AcDbEntity
  8
TRACE_MAIN
100
AcDbLine
 10
708.0
 20
84.0
 30
0.0
 11
1193.0
 21
84.0
 31
0.0
  0
LINE
  5
36
330
17
100
AcDbEntity
  8
TRACE_MAIN
100
AcDbLine
 10
427.0
 20
180.0
 30
0.0
 11
683.0
 21
180.0
 31
0.0
  0
LINE
  5
37
330
17
100
AcDbEntity
  8
TRACE_MAIN
100
AcDbLine
 10
708.0
 20
180.0
 30
0.0
 11
1098.0
 21
180.0
 31
0.0
  0
LINE
  5
38
330
17
100
AcDbEntity
  8
TRACE_MAIN
100
AcDbLine
 10
290.0
 20
1168.0
 30
0.0
 11
419.0
 21
1168.0
 31
0.0
  0
LINE
  5
39
330
17
100
AcDbEntity
  8
TRACE_MAIN
100
AcDbLine
 10
432.0
 20
1168.0
 30
0.0
 11
536.0
 21
1168.0
 31
0.0
  0
LINE
  5
3A
330
17
100
AcDbEntity
  8
TRACE_MAIN
100
AcDbLine
 10
549.0
 20
1168.0
 30
0.0
 11
706.0
 21
1168.0
 31
0.0
  0
LINE
  5
3B
330
17
100
AcDbEntity
  8
TRACE_MAIN
100
AcDbLine
 10
820.0
 20
1168.0
 30
0.0
 11
942.0
 21
1168.0
 31
0.0
  0
LINE
  5
3C
330
17
100
AcDbEntity
  8
TRACE_MAIN
100
AcDbLine
 10
955.0
 20
1168.0
 30
0.0
 11
1069.0
 21
1168.0
 31
0.0
  0
LINE
  5
3D
330
17
100
AcDbEntity
  8
TRACE_MAIN
100
AcDbLine
 10
302.0
 20
1164.0
 30
0.0
 11
420.0
 21
1164.0
 31
0.0
  0
LINE
  5
3E
330
17
100
AcDbEntity
  8
TRACE_MAIN
100
AcDbLine
 10
437.0
 20
1164.0
 30
0.0
 11
536.0
 21
1164.0
 31
0.0
  0
LINE
  5
3F
330
17
100
AcDbEntity
  8
TRACE_MAIN
100
AcDbLine
 10
551.0
 20
1164.0
 30
0.0
 11
706.0
 21
1164.0
 31
0.0
  0
LINE
  5
40
330
17
100
AcDbEntity
  8
TRACE_MAIN
100
AcDbLine
 10
820.0
 20
1164.0
 30
0.0
 11
942.0
 21
1164.0
 31
0.0
  0
LINE
  5
41
330
17
100
AcDbEntity
  8
TRACE_MAIN
100
AcDbLine
 10
956.0
 20
1164.0
 30
0.0
 11
1070.0
 21
1164.0
 31
0.0
  0
LINE
  5
42
330
17
100
AcDbEntity
  8
TRACE_MAIN
100
AcDbLine
 10
303.0
 20
1160.0
 30
0.0
 11
419.0
 21
1160.0
 31
0.0
  0
LINE
  5
43
330
17
100
AcDbEntity
  8
TRACE_MAIN
100
AcDbLine
 10
492.0
 20
1160.0
 30
0.0
 11
522.0
 21
1160.0
 31
0.0
  0
LINE
  5
44
330
17
100
AcDbEntity
  8
TRACE_MAIN
100
AcDbLine
 10
554.0
 20
1160.0
 30
0.0
 11
705.0
 21
1160.0
 31
0.0
  0
LINE
  5
45
330
17
100
AcDbEntity
  8
TRACE_MAIN
100
AcDbLine
 10
834.0
 20
1160.0
 30
0.0
 11
942.0
 21
1160.0
 31
0.0
  0
LINE
  5
46
330
17
100
AcDbEntity
  8
TRACE_MAIN
100
AcDbLine
 10
1011.0
 20
1160.0
 30
0.0
 11
1070.0
 21
1160.0
 31
0.0
  0
LINE
  5
47
330
17
100
AcDbEntity
  8
TRACE_MAIN
100
AcDbLine
 10
300.0
 20
1172.0
 30
0.0
 11
418.0
 21
1172.0
 31
0.0
  0
LINE
  5
48
330
17
100
AcDbEntity
  8
TRACE_MAIN
100
AcDbLine
 10
432.0
 20
1172.0
 30
0.0
 11
534.0
 21
1172.0
 31
0.0
  0
LINE
  5
49
330
17
100
AcDbEntity
  8
TRACE_MAIN
100
AcDbLine
 10
550.0
 20
1172.0
 30
0.0
 11
704.0
 21
1172.0
 31
0.0
  0
LINE
  5
4A
330
17
100
AcDbEntity
  8
TRACE_MAIN
100
AcDbLine
 10
834.0
 20
1172.0
 30
0.0
 11
940.0
 21
1172.0
 31
0.0
  0
LINE
  5
4B
330
17
100
AcDbEntity
  8
TRACE_MAIN
100
AcDbLine
 10
955.0
 20
1172.0
 30
0.0
 11
1030.0
 21
1172.0
 31
0.0
  0
LINE
  5
4C
330
17
100
AcDbEntity
  8
TRACE_MAIN
100
AcDbLine
 10
792.0
 20
176.0
 30
0.0
 11
1098.0
 21
176.0
 31
0.0
  0
LINE
  5
4D
330
17
100
AcDbEntity
  8
TRACE_MAIN
100
AcDbLine
 10
216.0
 20
1032.0
 30
0.0
 11
271.0
 21
1032.0
 31
0.0
  0
LINE
  5
4E
330
17
100
AcDbEntity
  8
TRACE_MAIN
100
AcDbLine
 10
290.0
 20
1032.0
 30
0.0
 11
468.0
 21
1032.0
 31
0.0
  0
LINE
  5
4F
330
17
100
AcDbEntity
  8
TRACE_MAIN
100
AcDbLine
 10
481.0
 20
1032.0
 30
0.0
 11
562.0
 21
1032.0
 31
0.0
  0
LINE
  5
50
330
17
100
AcDbEntity
  8
TRACE_MAIN
100
AcDbLine
 10
819.0
 20
1032.0
 30
0.0
 11
961.0
 21
1032.0
 31
0.0
  0
LINE
  5
51
330
17
100
AcDbEntity
  8
TRACE_MAIN
100
AcDbLine
 10
975.0
 20
1032.0
 30
0.0
 11
1069.0
 21
1032.0
 31
0.0
  0
LINE
  5
52
330
17
100
AcDbEntity
  8
TRACE_MAIN
100
AcDbLine
 10
1083.0
 20
1032.0
 30
0.0
 11
1129.0
 21
1032.0
 31
0.0
  0
LINE
  5
53
330
17
100
AcDbEntity
  8
TRACE_MAIN
100
AcDbLine
 10
172.0
 20
552.0
 30
0.0
 11
1064.0
 21
552.0
 31
0.0
  0
LINE
  5
54
330
17
100
AcDbEntity
  8
TRACE_MAIN
100
AcDbLine
 10
230.0
 20
1124.0
 30
0.0
 11
271.0
 21
1124.0
 31
0.0
  0
LINE
  5
55
330
17
100
AcDbEntity
  8
TRACE_MAIN
100
AcDbLine
 10
295.0
 20
1124.0
 30
0.0
 11
351.0
 21
1124.0
 31
0.0
  0
LINE
  5
56
330
17
100
AcDbEntity
  8
TRACE_MAIN
100
AcDbLine
 10
370.0
 20
1124.0
 30
0.0
 11
462.0
 21
1124.0
 31
0.0
  0
LINE
  5
57
330
17
100
AcDbEntity
  8
TRACE_MAIN
100
AcDbLine
 10
482.0
 20
1124.0
 30
0.0
 11
566.0
 21
1124.0
 31
0.0
  0
LINE
  5
58
330
17
100
AcDbEntity
  8
TRACE_MAIN
100
AcDbLine
 10
825.0
 20
1124.0
 30
0.0
 11
909.0
 21
1124.0
 31
0.0
  0
LINE
  5
59
330
17
100
AcDbEntity
  8
TRACE_MAIN
100
AcDbLine
 10
934.0
 20
1124.0
 30
0.0
 11
991.0
 21
1124.0
 31
0.0
  0
LINE
  5
5A
330
17
100
AcDbEntity
  8
TRACE_MAIN
100
AcDbLine
 10
1007.0
 20
1124.0
 30
0.0
 11
1073.0
 21
1124.0
 31
0.0
  0
LINE
  5
5B
330
17
100
AcDbEntity
  8
TRACE_MAIN
100
AcDbLine
 10
301.0
 20
1212.0
 30
0.0
 11
406.0
 21
1212.0
 31
0.0
  0
LINE
  5
5C
330
17
100
AcDbEntity
  8
TRACE_MAIN
100
AcDbLine
 10
419.0
 20
1212.0
 30
0.0
 11
562.0
 21
1212.0
 31
0.0
  0
LINE
  5
5D
330
17
100
AcDbEntity
  8
TRACE_MAIN
100
AcDbLine
 10
575.0
 20
1212.0
 30
0.0
 11
706.0
 21
1212.0
 31
0.0
  0
LINE
  5
5E
330
17
100
AcDbEntity
  8
TRACE_MAIN
100
AcDbLine
 10
208.0
 20
24.0
 30
0.0
 11
658.0
 21
24.0
 31
0.0
  0
LINE
  5
5F
330
17
100
AcDbEntity
  8
TRACE_MAIN
100
AcDbLine
 10
303.0
 20
1120.0
 30
0.0
 11
340.0
 21
1120.0
 31
0.0
  0
LINE
  5
60
330
17
100
AcDbEntity
  8
TRACE_MAIN
100
AcDbLine
 10
368.0
 20
1120.0
 30
0.0
 11
463.0
 21
1120.0
 31
0.0
  0
LINE
  5
61
330
17
100
AcDbEntity
  8
TRACE_MAIN
100
AcDbLine
 10
483.0
 20
1120.0
 30
0.0
 11
542.0
 21
1120.0
 31
0.0
  0
LINE
  5
62
330
17
100
AcDbEntity
  8
TRACE_MAIN
100
AcDbLine
 10
820.0
 20
1120.0
 30
0.0
 11
912.0
 21
1120.0
 31
0.0
  0
LINE
  5
63
330
17
100
AcDbEntity
  8
TRACE_MAIN
100
AcDbLine
 10
938.0
 20
1120.0
 30
0.0
 11
1073.0
 21
1120.0
 31
0.0
  0
LINE
  5
64
330
17
100
AcDbEntity
  8
TRACE_MAIN
100
AcDbLine
 10
521.0
 20
272.0
 30
0.0
 11
683.0
 21
272.0
 31
0.0
  0
LINE
  5
65
330
17
100
AcDbEntity
  8
TRACE_MAIN
100
AcDbLine
 10
708.0
 20
272.0
 30
0.0
 11
1004.0
 21
272.0
 31
0.0
  0
LINE
  5
66
330
17
100
AcDbEntity
  8
TRACE_MAIN
100
AcDbLine
 10
333.0
 20
88.0
 30
0.0
 11
593.0
 21
88.0
 31
0.0
  0
LINE
  5
67
330
17
100
AcDbEntity
  8
TRACE_MAIN
100
AcDbLine
 10
302.0
 20
1208.0
 30
0.0
 11
406.0
 21
1208.0
 31
0.0
  0
LINE
  5
68
330
17
100
AcDbEntity
  8
TRACE_MAIN
100
AcDbLine
 10
420.0
 20
1208.0
 30
0.0
 11
451.0
 21
1208.0
 31
0.0
  0
LINE
  5
69
330
17
100
AcDbEntity
  8
TRACE_MAIN
100
AcDbLine
 10
469.0
 20
1208.0
 30
0.0
 11
558.0
 21
1208.0
 31
0.0
  0
LINE
  5
6A
330
17
100
AcDbEntity
  8
TRACE_MAIN
100
AcDbLine
 10
578.0
 20
1208.0
 30
0.0
 11
706.0
 21
1208.0
 31
0.0
  0
LINE
  5
6B
330
17
100
AcDbEntity
  8
TRACE_MAIN
100
AcDbLine
 10
300.0
 20
1036.0
 30
0.0
 11
468.0
 21
1036.0
 31
0.0
  0
LINE
  5
6C
330
17
100
AcDbEntity
  8
TRACE_MAIN
100
AcDbLine
 10
482.0
 20
1036.0
 30
0.0
 11
548.0
 21
1036.0
 31
0.0
  0
LINE
  5
6D
330
17
100
AcDbEntity
  8
TRACE_MAIN
100
AcDbLine
 10
918.0
 20
1036.0
 30
0.0
 11
959.0
 21
1036.0
 31
0.0
  0
LINE
  5
6E
330
17
100
AcDbEntity
  8
TRACE_MAIN
100
AcDbLine
 10
290.0
 20
1028.0
 30
0.0
 11
470.0
 21
1028.0
 31
0.0
  0
LINE
  5
6F
330
17
100
AcDbEntity
  8
TRACE_MAIN
100
AcDbLine
 10
483.0
 20
1028.0
 30
0.0
 11
563.0
 21
1028.0
 31
0.0
  0
LINE
  5
70
330
17
100
AcDbEntity
  8
TRACE_MAIN
100
AcDbLine
 10
832.0
 20
1028.0
 30
0.0
 11
865.0
 21
1028.0
 31
0.0
  0
LINE
  5
71
330
17
100
AcDbEntity
  8
TRACE_MAIN
100
AcDbLine
 10
893.0
 20
1028.0
 30
0.0
 11
962.0
 21
1028.0
 31
0.0
  0
LINE
  5
72
330
17
100
AcDbEntity
  8
TRACE_MAIN
100
AcDbLine
 10
976.0
 20
1028.0
 30
0.0
 11
1017.0
 21
1028.0
 31
0.0
  0
LINE
  5
73
330
17
100
AcDbEntity
  8
TRACE_MAIN
100
AcDbLine
 10
307.0
 20
1072.0
 30
0.0
 11
415.0
 21
1072.0
 31
0.0
  0
LINE
  5
74
330
17
100
AcDbEntity
  8
TRACE_MAIN
100
AcDbLine
 10
429.0
 20
1072.0
 30
0.0
 11
509.0
 21
1072.0
 31
0.0
  0
LINE
  5
75
330
17
100
AcDbEntity
  8
TRACE_MAIN
100
AcDbLine
 10
548.0
 20
1072.0
 30
0.0
 11
639.0
 21
1072.0
 31
0.0
  0
LINE
  5
76
330
17
100
AcDbEntity
  8
TRACE_MAIN
100
AcDbLine
 10
832.0
 20
1072.0
 30
0.0
 11
888.0
 21
1072.0
 31
0.0
  0
LINE
  5
77
330
17
100
AcDbEntity
  8
TRACE_MAIN
100
AcDbLine
 10
208.0
 20
28.0
 30
0.0
 11
658.0
 21
28.0
 31
0.0
  0
LINE
  5
78
330
17
100
AcDbEntity
  8
TRACE_MAIN
100
AcDbLine
 10
236.0
 20
1128.0
 30
0.0
 11
266.0
 21
1128.0
 31
0.0
  0
LINE
  5
79
330
17
100
AcDbEntity
  8
TRACE_MAIN
100
AcDbLine
 10
300.0
 20
1128.0
 30
0.0
 11
351.0
 21
1128.0
 31
0.0
  0
LINE
  5
7A
330
17
100
AcDbEntity
  8
TRACE_MAIN
100
AcDbLine
 10
407.0
 20
1128.0
 30
0.0
 11
436.0
 21
1128.0
 31
0.0
  0
LINE
  5
7B
330
17
100
AcDbEntity
  8
TRACE_MAIN
100
AcDbLine
 10
483.0
 20
1128.0
 30
0.0
 11
564.0
 21
1128.0
 31
0.0
  0
LINE
  5
7C
330
17
100
AcDbEntity
  8
TRACE_MAIN
100
AcDbLine
 10
1008.0
 20
1128.0
 30
0.0
 11
1066.0
 21
1128.0
 31
0.0
  0
LINE
  5
7D
330
17
100
AcDbEntity
  8
TRACE_MAIN
100
AcDbLine
 10
918.0
 20
932.0
 30
0.0
 11
954.0
 21
932.0
 31
0.0
  0
LINE
  5
7E
330
17
100
AcDbEntity
  8
TRACE_MAIN
100
AcDbLine
 10
968.0
 20
932.0
 30
0.0
 11
1014.0
 21
932.0
 31
0.0
  0
LINE
  5
7F
330
17
100
AcDbEntity
  8
TRACE_MAIN
100
AcDbLine
 10
1026.0
 20
932.0
 30
0.0
 11
1075.0
 21
932.0
 31
0.0
  0
LINE
  5
80
330
17
100
AcDbEntity
  8
TRACE_MAIN
100
AcDbLine
 10
1166.0
 20
932.0
 30
0.0
 11
1338.0
 21
932.0
 31
0.0
  0
LINE
  5
81
330
17
100
AcDbEntity
  8
TRACE_MAIN
100
AcDbLine
 10
316.0
 20
1116.0
 30
0.0
 11
348.0
 21
1116.0
 31
0.0
  0
LINE
  5
82
330
17
100
AcDbEntity
  8
TRACE_MAIN
100
AcDbLine
 10
369.0
 20
1116.0
 30
0.0
 11
463.0
 21
1116.0
 31
0.0
  0
LINE
  5
83
330
17
100
AcDbEntity
  8
TRACE_MAIN
100
AcDbLine
 10
484.0
 20
1116.0
 30
0.0
 11
561.0
 21
1116.0
 31
0.0
  0
LINE
  5
84
330
17
100
AcDbEntity
  8
TRACE_MAIN
100
AcDbLine
 10
832.0
 20
1116.0
 30
0.0
 11
913.0
 21
1116.0
 31
0.0
  0
LINE
  5
85
330
17
100
AcDbEntity
  8
TRACE_MAIN
100
AcDbLine
 10
937.0
 20
1116.0
 30
0.0
 11
993.0
 21
1116.0
 31
0.0
  0
LINE
  5
86
330
17
100
AcDbEntity
  8
TRACE_MAIN
100
AcDbLine
 10
1008.0
 20
1116.0
 30
0.0
 11
1085.0
 21
1116.0
 31
0.0
  0
LINE
  5
87
330
17
100
AcDbEntity
  8
TRACE_MAIN
100
AcDbLine
 10
297.0
 20
496.0
 30
0.0
 11
367.0
 21
496.0
 31
0.0
  0
LINE
  5
88
330
17
100
AcDbEntity
  8
TRACE_MAIN
100
AcDbLine
 10
392.0
 20
496.0
 30
0.0
 11
559.0
 21
496.0
 31
0.0
  0
LINE
  5
89
330
17
100
AcDbEntity
  8
TRACE_MAIN
100
AcDbLine
 10
894.0
 20
496.0
 30
0.0
 11
978.0
 21
496.0
 31
0.0
  0
LINE
  5
8A
330
17
100
AcDbEntity
  8
TRACE_MAIN
100
AcDbLine
 10
988.0
 20
496.0
 30
0.0
 11
1072.0
 21
496.0
 31
0.0
  0
LINE
  5
8B
330
17
100
AcDbEntity
  8
TRACE_MAIN
100
AcDbLine
 10
1083.0
 20
496.0
 30
0.0
 11
1166.0
 21
496.0
 31
0.0
  0
LINE
  5
8C
330
17
100
AcDbEntity
  8
TRACE_MAIN
100
AcDbLine
 10
643.0
 20
548.0
 30
0.0
 11
1093.0
 21
548.0
 31
0.0
  0
LINE
  5
8D
330
17
100
AcDbEntity
  8
TRACE_MAIN
100
AcDbLine
 10
371.0
 20
848.0
 30
0.0
 11
556.0
 21
848.0
 31
0.0
  0
LINE
  5
8E
330
17
100
AcDbEntity
  8
TRACE_MAIN
100
AcDbLine
 10
31.0
 20
260.0
 30
0.0
 11
113.0
 21
260.0
 31
0.0
  0
LINE
  5
8F
330
17
100
AcDbEntity
  8
TRACE_MAIN
100
AcDbLine
 10
126.0
 20
260.0
 30
0.0
 11
158.0
 21
260.0
 31
0.0
  0
LINE
  5
90
330
17
100
AcDbEntity
  8
TRACE_MAIN
100
AcDbLine
 10
172.0
 20
260.0
 30
0.0
 11
227.0
 21
260.0
 31
0.0
  0
LINE
  5
91
330
17
100
AcDbEntity
  8
TRACE_MAIN
100
AcDbLine
 10
672.0
 20
260.0
 30
0.0
 11
718.0
 21
260.0
 31
0.0
  0
LINE
  5
92
330
17
100
AcDbEntity
  8
TRACE_MAIN
100
AcDbLine
 10
196.0
 20
1216.0
 30
0.0
 11
274.0
 21
1216.0
 31
0.0
  0
LINE
  5
93
330
17
100
AcDbEntity
  8
TRACE_MAIN
100
AcDbLine
 10
290.0
 20
1216.0
 30
0.0
 11
399.0
 21
1216.0
 31
0.0
  0
LINE
  5
94
330
17
100
AcDbEntity
  8
TRACE_MAIN
100
AcDbLine
 10
417.0
 20
1216.0
 30
0.0
 11
562.0
 21
1216.0
 31
0.0
  0
LINE
  5
95
330
17
100
AcDbEntity
  8
TRACE_MAIN
100
AcDbLine
 10
575.0
 20
1216.0
 30
0.0
 11
705.0
 21
1216.0
 31
0.0
  0
LINE
  5
96
330
17
100
AcDbEntity
  8
TRACE_MAIN
100
AcDbLine
 10
302.0
 20
1024.0
 30
0.0
 11
395.0
 21
1024.0
 31
0.0
  0
LINE
  5
97
330
17
100
AcDbEntity
  8
TRACE_MAIN
100
AcDbLine
 10
484.0
 20
1024.0
 30
0.0
 11
563.0
 21
1024.0
 31
0.0
  0
LINE
  5
98
330
17
100
AcDbEntity
  8
TRACE_MAIN
100
AcDbLine
 10
832.0
 20
1024.0
 30
0.0
 11
944.0
 21
1024.0
 31
0.0
  0
LINE
  5
99
330
17
100
AcDbEntity
  8
TRACE_MAIN
100
AcDbLine
 10
976.0
 20
1024.0
 30
0.0
 11
1041.0
 21
1024.0
 31
0.0
  0
LINE
  5
9A
330
17
100
AcDbEntity
  8
TRACE_MAIN
100
AcDbLine
 10
1087.0
 20
1024.0
 30
0.0
 11
1129.0
 21
1024.0
 31
0.0
  0
LINE
  5
9B
330
17
100
AcDbEntity
  8
TRACE_MAIN
100
AcDbLine
 10
297.0
 20
500.0
 30
0.0
 11
373.0
 21
500.0
 31
0.0
  0
LINE
  5
9C
330
17
100
AcDbEntity
  8
TRACE_MAIN
100
AcDbLine
 10
390.0
 20
500.0
 30
0.0
 11
560.0
 21
500.0
 31
0.0
  0
LINE
  5
9D
330
17
100
AcDbEntity
  8
TRACE_MAIN
100
AcDbLine
 10
893.0
 20
500.0
 30
0.0
 11
1167.0
 21
500.0
 31
0.0
  0
LINE
  5
9E
330
17
100
AcDbEntity
  8
TRACE_MAIN
100
AcDbLine
 10
505.0
 20
984.0
 30
0.0
 11
607.0
 21
984.0
 31
0.0
  0
LINE
  5
9F
330
17
100
AcDbEntity
  8
TRACE_MAIN
100
AcDbLine
 10
646.0
 20
984.0
 30
0.0
 11
676.0
 21
984.0
 31
0.0
  0
LINE
  5
A0
330
17
100
AcDbEntity
  8
TRACE_MAIN
100
AcDbLine
 10
699.0
 20
984.0
 30
0.0
 11
728.0
 21
984.0
 31
0.0
  0
LINE
  5
A1
330
17
100
AcDbEntity
  8
TRACE_MAIN
100
AcDbLine
 10
754.0
 20
984.0
 30
0.0
 11
820.0
 21
984.0
 31
0.0
  0
LINE
  5
A2
330
17
100
AcDbEntity
  8
TRACE_MAIN
100
AcDbLine
 10
1277.0
 20
1012.0
 30
0.0
 11
1327.0
 21
1012.0
 31
0.0
  0
LINE
  5
A3
330
17
100
AcDbEntity
  8
TRACE_MAIN
100
AcDbLine
 10
402.0
 20
844.0
 30
0.0
 11
432.0
 21
844.0
 31
0.0
  0
LINE
  5
A4
330
17
100
AcDbEntity
  8
TRACE_MAIN
100
AcDbLine
 10
978.0
 20
844.0
 30
0.0
 11
1163.0
 21
844.0
 31
0.0
  0
LINE
  5
A5
330
17
100
AcDbEntity
  8
TRACE_MAIN
100
AcDbLine
 10
404.0
 20
808.0
 30
0.0
 11
432.0
 21
808.0
 31
0.0
  0
LINE
  5
A6
330
17
100
AcDbEntity
  8
TRACE_MAIN
100
AcDbLine
 10
996.0
 20
808.0
 30
0.0
 11
1052.0
 21
808.0
 31
0.0
  0
LINE
  5
A7
330
17
100
AcDbEntity
  8
TRACE_MAIN
100
AcDbLine
 10
1077.0
 20
808.0
 30
0.0
 11
1147.0
 21
808.0
 31
0.0
  0
LINE
  5
A8
330
17
100
AcDbEntity
  8
TRACE_MAIN
100
AcDbLine
 10
357.0
 20
716.0
 30
0.0
 11
451.0
 21
716.0
 31
0.0
  0
LINE
  5
A9
330
17
100
AcDbEntity
  8
TRACE_MAIN
100
AcDbLine
 10
559.0
 20
716.0
 30
0.0
 11
618.0
 21
716.0
 31
0.0
  0
LINE
  5
AA
330
17
100
AcDbEntity
  8
TRACE_MAIN
100
AcDbLine
 10
889.0
 20
716.0
 30
0.0
 11
974.0
 21
716.0
 31
0.0
  0
LINE
  5
AB
330
17
100
AcDbEntity
  8
TRACE_MAIN
100
AcDbLine
 10
992.0
 20
80.0
 30
0.0
 11
1193.0
 21
80.0
 31
0.0
  0
LINE
  5
AC
330
17
100
AcDbEntity
  8
TRACE_MAIN
100
AcDbLine
 10
467.0
 20
992.0
 30
0.0
 11
604.0
 21
992.0
 31
0.0
  0
LINE
  5
AD
330
17
100
AcDbEntity
  8
TRACE_MAIN
100
AcDbLine
 10
627.0
 20
992.0
 30
0.0
 11
728.0
 21
992.0
 31
0.0
  0
LINE
  5
AE
330
17
100
AcDbEntity
  8
TRACE_MAIN
100
AcDbLine
 10
745.0
 20
992.0
 30
0.0
 11
818.0
 21
992.0
 31
0.0
  0
LINE
  5
AF
330
17
100
AcDbEntity
  8
TRACE_MAIN
100
AcDbLine
 10
260.0
 20
872.0
 30
0.0
 11
293.0
 21
872.0
 31
0.0
  0
LINE
  5
B0
330
17
100
AcDbEntity
  8
TRACE_MAIN
100
AcDbLine
 10
575.0
 20
872.0
 30
0.0
 11
641.0
 21
872.0
 31
0.0
  0
LINE
  5
B1
330
17
100
AcDbEntity
  8
TRACE_MAIN
100
AcDbLine
 10
867.0
 20
872.0
 30
0.0
 11
932.0
 21
872.0
 31
0.0
  0
LINE
  5
B2
330
17
100
AcDbEntity
  8
TRACE_MAIN
100
AcDbLine
 10
1008.0
 20
872.0
 30
0.0
 11
1047.0
 21
872.0
 31
0.0
  0
LINE
  5
B3
330
17
100
AcDbEntity
  8
TRACE_MAIN
100
AcDbLine
 10
1089.0
 20
872.0
 30
0.0
 11
1124.0
 21
872.0
 31
0.0
  0
LINE
  5
B4
330
17
100
AcDbEntity
  8
TRACE_MAIN
100
AcDbLine
 10
1160.0
 20
872.0
 30
0.0
 11
1234.0
 21
872.0
 31
0.0
  0
LINE
  5
B5
330
17
100
AcDbEntity
  8
TRACE_MAIN
100
AcDbLine
 10
1263.0
 20
872.0
 30
0.0
 11
1315.0
 21
872.0
 31
0.0
  0
LINE
  5
B6
330
17
100
AcDbEntity
  8
TRACE_MAIN
100
AcDbLine
 10
296.0
 20
512.0
 30
0.0
 11
371.0
 21
512.0
 31
0.0
  0
LINE
  5
B7
330
17
100
AcDbEntity
  8
TRACE_MAIN
100
AcDbLine
 10
391.0
 20
512.0
 30
0.0
 11
455.0
 21
512.0
 31
0.0
  0
LINE
  5
B8
330
17
100
AcDbEntity
  8
TRACE_MAIN
100
AcDbLine
 10
471.0
 20
512.0
 30
0.0
 11
556.0
 21
512.0
 31
0.0
  0
LINE
  5
B9
330
17
100
AcDbEntity
  8
TRACE_MAIN
100
AcDbLine
 10
904.0
 20
512.0
 30
0.0
 11
932.0
 21
512.0
 31
0.0
  0
LINE
  5
BA
330
17
100
AcDbEntity
  8
TRACE_MAIN
100
AcDbLine
 10
958.0
 20
512.0
 30
0.0
 11
1043.0
 21
512.0
 31
0.0
  0
LINE
  5
BB
330
17
100
AcDbEntity
  8
TRACE_MAIN
100
AcDbLine
 10
1078.0
 20
512.0
 30
0.0
 11
1136.0
 21
512.0
 31
0.0
  0
LINE
  5
BC
330
17
100
AcDbEntity
  8
TRACE_MAIN
100
AcDbLine
 10
1154.0
 20
512.0
 30
0.0
 11
1185.0
 21
512.0
 31
0.0
  0
LINE
  5
BD
330
17
100
AcDbEntity
  8
TRACE_MAIN
100
AcDbLine
 10
31.0
 20
256.0
 30
0.0
 11
113.0
 21
256.0
 31
0.0
  0
LINE
  5
BE
330
17
100
AcDbEntity
  8
TRACE_MAIN
100
AcDbLine
 10
127.0
 20
256.0
 30
0.0
 11
160.0
 21
256.0
 31
0.0
  0
LINE
  5
BF
330
17
100
AcDbEntity
  8
TRACE_MAIN
100
AcDbLine
 10
173.0
 20
256.0
 30
0.0
 11
227.0
 21
256.0
 31
0.0
  0
LINE
  5
C0
330
17
100
AcDbEntity
  8
TRACE_MAIN
100
AcDbLine
 10
1276.0
 20
256.0
 30
0.0
 11
1372.0
 21
256.0
 31
0.0
  0
LINE
  5
C1
330
17
100
AcDbEntity
  8
TRACE_MAIN
100
AcDbLine
 10
919.0
 20
928.0
 30
0.0
 11
954.0
 21
928.0
 31
0.0
  0
LINE
  5
C2
330
17
100
AcDbEntity
  8
TRACE_MAIN
100
AcDbLine
 10
986.0
 20
928.0
 30
0.0
 11
1014.0
 21
928.0
 31
0.0
  0
LINE
  5
C3
330
17
100
AcDbEntity
  8
TRACE_MAIN
100
AcDbLine
 10
1027.0
 20
928.0
 30
0.0
 11
1075.0
 21
928.0
 31
0.0
  0
LINE
  5
C4
330
17
100
AcDbEntity
  8
TRACE_MAIN
100
AcDbLine
 10
1166.0
 20
928.0
 30
0.0
 11
1337.0
 21
928.0
 31
0.0
  0
LINE
  5
C5
330
17
100
AcDbEntity
  8
TRACE_MAIN
100
AcDbLine
 10
297.0
 20
508.0
 30
0.0
 11
364.0
 21
508.0
 31
0.0
  0
LINE
  5
C6
330
17
100
AcDbEntity
  8
TRACE_MAIN
100
AcDbLine
 10
393.0
 20
508.0
 30
0.0
 11
458.0
 21
508.0
 31
0.0
  0
LINE
  5
C7
330
17
100
AcDbEntity
  8
TRACE_MAIN
100
AcDbLine
 10
484.0
 20
508.0
 30
0.0
 11
556.0
 21
508.0
 31
0.0
  0
LINE
  5
C8
330
17
100
AcDbEntity
  8
TRACE_MAIN
100
AcDbLine
 10
307.0
 20
1076.0
 30
0.0
 11
414.0
 21
1076.0
 31
0.0
  0
LINE
  5
C9
330
17
100
AcDbEntity
  8
TRACE_MAIN
100
AcDbLine
 10
443.0
 20
1076.0
 30
0.0
 11
509.0
 21
1076.0
 31
0.0
  0
LINE
  5
CA
330
17
100
AcDbEntity
  8
TRACE_MAIN
100
AcDbLine
 10
524.0
 20
1076.0
 30
0.0
 11
637.0
 21
1076.0
 31
0.0
  0
LINE
  5
CB
330
17
100
AcDbEntity
  8
TRACE_MAIN
100
AcDbLine
 10
824.0
 20
1076.0
 30
0.0
 11
887.0
 21
1076.0
 31
0.0
  0
LINE
  5
CC
330
17
100
AcDbEntity
  8
TRACE_MAIN
100
AcDbLine
 10
267.0
 20
868.0
 30
0.0
 11
296.0
 21
868.0
 31
0.0
  0
LINE
  5
CD
330
17
100
AcDbEntity
  8
TRACE_MAIN
100
AcDbLine
 10
576.0
 20
868.0
 30
0.0
 11
611.0
 21
868.0
 31
0.0
  0
LINE
  5
CE
330
17
100
AcDbEntity
  8
TRACE_MAIN
100
AcDbLine
 10
867.0
 20
868.0
 30
0.0
 11
932.0
 21
868.0
 31
0.0
  0
LINE
  5
CF
330
17
100
AcDbEntity
  8
TRACE_MAIN
100
AcDbLine
 10
1156.0
 20
868.0
 30
0.0
 11
1236.0
 21
868.0
 31
0.0
  0
LINE
  5
D0
330
17
100
AcDbEntity
  8
TRACE_MAIN
100
AcDbLine
 10
1237.0
 20
1004.0
 30
0.0
 11
1266.0
 21
1004.0
 31
0.0
  0
LINE
  5
D1
330
17
100
AcDbEntity
  8
TRACE_MAIN
100
AcDbLine
 10
309.0
 20
1064.0
 30
0.0
 11
341.0
 21
1064.0
 31
0.0
  0
LINE
  5
D2
330
17
100
AcDbEntity
  8
TRACE_MAIN
100
AcDbLine
 10
430.0
 20
1064.0
 30
0.0
 11
479.0
 21
1064.0
 31
0.0
  0
LINE
  5
D3
330
17
100
AcDbEntity
  8
TRACE_MAIN
100
AcDbLine
 10
525.0
 20
1064.0
 30
0.0
 11
633.0
 21
1064.0
 31
0.0
  0
LINE
  5
D4
330
17
100
AcDbEntity
  8
TRACE_MAIN
100
AcDbLine
 10
509.0
 20
976.0
 30
0.0
 11
578.0
 21
976.0
 31
0.0
  0
LINE
  5
D5
330
17
100
AcDbEntity
  8
TRACE_MAIN
100
AcDbLine
 10
631.0
 20
976.0
 30
0.0
 11
822.0
 21
976.0
 31
0.0
  0
LINE
  5
D6
330
17
100
AcDbEntity
  8
TRACE_MAIN
100
AcDbLine
 10
249.0
 20
912.0
 30
0.0
 11
281.0
 21
912.0
 31
0.0
  0
LINE
  5
D7
330
17
100
AcDbEntity
  8
TRACE_MAIN
100
AcDbLine
 10
294.0
 20
912.0
 30
0.0
 11
343.0
 21
912.0
 31
0.0
  0
LINE
  5
D8
330
17
100
AcDbEntity
  8
TRACE_MAIN
100
AcDbLine
 10
889.0
 20
712.0
 30
0.0
 11
984.0
 21
712.0
 31
0.0
  0
LINE
  5
D9
330
17
100
AcDbEntity
  8
TRACE_MAIN
100
AcDbLine
 10
1079.0
 20
712.0
 30
0.0
 11
1174.0
 21
712.0
 31
0.0
  0
LINE
  5
DA
330
17
100
AcDbEntity
  8
TRACE_MAIN
100
AcDbLine
 10
389.0
 20
812.0
 30
0.0
 11
445.0
 21
812.0
 31
0.0
  0
LINE
  5
DB
330
17
100
AcDbEntity
  8
TRACE_MAIN
100
AcDbLine
 10
260.0
 20
876.0
 30
0.0
 11
311.0
 21
876.0
 31
0.0
  0
LINE
  5
DC
330
17
100
AcDbEntity
  8
TRACE_MAIN
100
AcDbLine
 10
575.0
 20
876.0
 30
0.0
 11
610.0
 21
876.0
 31
0.0
  0
LINE
  5
DD
330
17
100
AcDbEntity
  8
TRACE_MAIN
100
AcDbLine
 10
867.0
 20
876.0
 30
0.0
 11
901.0
 21
876.0
 31
0.0
  0
LINE
  5
DE
330
17
100
AcDbEntity
  8
TRACE_MAIN
100
AcDbLine
 10
588.0
 20
900.0
 30
0.0
 11
625.0
 21
900.0
 31
0.0
  0
LINE
  5
DF
330
17
100
AcDbEntity
  8
TRACE_MAIN
100
AcDbLine
 10
641.0
 20
900.0
 30
0.0
 11
684.0
 21
900.0
 31
0.0
  0
LINE
  5
E0
330
17
100
AcDbEntity
  8
TRACE_MAIN
100
AcDbLine
 10
697.0
 20
900.0
 30
0.0
 11
745.0
 21
900.0
 31
0.0
  0
LINE
  5
E1
330
17
100
AcDbEntity
  8
TRACE_MAIN
100
AcDbLine
 10
30.0
 20
264.0
 30
0.0
 11
111.0
 21
264.0
 31
0.0
  0
LINE
  5
E2
330
17
100
AcDbEntity
  8
TRACE_MAIN
100
AcDbLine
 10
127.0
 20
264.0
 30
0.0
 11
158.0
 21
264.0
 31
0.0
  0
LINE
  5
E3
330
17
100
AcDbEntity
  8
TRACE_MAIN
100
AcDbLine
 10
172.0
 20
264.0
 30
0.0
 11
227.0
 21
264.0
 31
0.0
  0
LINE
  5
E4
330
17
100
AcDbEntity
  8
TRACE_MAIN
100
AcDbLine
 10
672.0
 20
264.0
 30
0.0
 11
719.0
 21
264.0
 31
0.0
  0
LINE
  5
E5
330
17
100
AcDbEntity
  8
TRACE_MAIN
100
AcDbLine
 10
981.0
 20
264.0
 30
0.0
 11
1009.0
 21
264.0
 31
0.0
  0
LINE
  5
E6
330
17
100
AcDbEntity
  8
TRACE_MAIN
100
AcDbLine
 10
248.0
 20
920.0
 30
0.0
 11
279.0
 21
920.0
 31
0.0
  0
LINE
  5
E7
330
17
100
AcDbEntity
  8
TRACE_MAIN
100
AcDbLine
 10
295.0
 20
920.0
 30
0.0
 11
339.0
 21
920.0
 31
0.0
  0
LINE
  5
E8
330
17
100
AcDbEntity
  8
TRACE_MAIN
100
AcDbLine
 10
1271.0
 20
920.0
 30
0.0
 11
1310.0
 21
920.0
 31
0.0
  0
LINE
  5
E9
330
17
100
AcDbEntity
  8
TRACE_MAIN
100
AcDbLine
 10
26.0
 20
300.0
 30
0.0
 11
229.0
 21
300.0
 31
0.0
  0
LINE
  5
EA
330
17
100
AcDbEntity
  8
TRACE_MAIN
100
AcDbLine
 10
305.0
 20
484.0
 30
0.0
 11
352.0
 21
484.0
 31
0.0
  0
LINE
  5
EB
330
17
100
AcDbEntity
  8
TRACE_MAIN
100
AcDbLine
 10
365.0
 20
484.0
 30
0.0
 11
418.0
 21
484.0
 31
0.0
  0
LINE
  5
EC
330
17
100
AcDbEntity
  8
TRACE_MAIN
100
AcDbLine
 10
467.0
 20
484.0
 30
0.0
 11
537.0
 21
484.0
 31
0.0
  0
LINE
  5
ED
330
17
100
AcDbEntity
  8
TRACE_MAIN
100
AcDbLine
 10
908.0
 20
484.0
 30
0.0
 11
963.0
 21
484.0
 31
0.0
  0
LINE
  5
EE
330
17
100
AcDbEntity
  8
TRACE_MAIN
100
AcDbLine
 10
28.0
 20
236.0
 30
0.0
 11
229.0
 21
236.0
 31
0.0
  0
LINE
  5
EF
330
17
100
AcDbEntity
  8
TRACE_MAIN
100
AcDbLine
 10
1330.0
 20
236.0
 30
0.0
 11
1366.0
 21
236.0
 31
0.0
  0
LINE
  5
F0
330
17
100
AcDbEntity
  8
TRACE_MAIN
100
AcDbLine
 10
502.0
 20
988.0
 30
0.0
 11
546.0
 21
988.0
 31
0.0
  0
LINE
  5
F1
330
17
100
AcDbEntity
  8
TRACE_MAIN
100
AcDbLine
 10
663.0
 20
988.0
 30
0.0
 11
709.0
 21
988.0
 31
0.0
  0
LINE
  5
F2
330
17
100
AcDbEntity
  8
TRACE_MAIN
100
AcDbLine
 10
770.0
 20
988.0
 30
0.0
 11
819.0
 21
988.0
 31
0.0
  0
LINE
  5
F3
330
17
100
AcDbEntity
  8
TRACE_MAIN
100
AcDbLine
 10
1264.0
 20
864.0
 30
0.0
 11
1320.0
 21
864.0
 31
0.0
  0
LINE
  5
F4
330
17
100
AcDbEntity
  8
TRACE_MAIN
100
AcDbLine
 10
12.0
 20
288.0
 30
0.0
 11
143.0
 21
288.0
 31
0.0
  0
LINE
  5
F5
330
17
100
AcDbEntity
  8
TRACE_MAIN
100
AcDbLine
 10
28.0
 20
276.0
 30
0.0
 11
138.0
 21
276.0
 31
0.0
  0
LINE
  5
F6
330
17
100
AcDbEntity
  8
TRACE_MAIN
100
AcDbLine
 10
521.0
 20
276.0
 30
0.0
 11
684.0
 21
276.0
 31
0.0
  0
LINE
  5
F7
330
17
100
AcDbEntity
  8
TRACE_MAIN
100
AcDbLine
 10
358.0
 20
600.0
 30
0.0
 11
429.0
 21
600.0
 31
0.0
  0
LINE
  5
F8
330
17
100
AcDbEntity
  8
TRACE_MAIN
100
AcDbLine
 10
548.0
 20
600.0
 30
0.0
 11
618.0
 21
600.0
 31
0.0
  0
LINE
  5
F9
330
17
100
AcDbEntity
  8
TRACE_MAIN
100
AcDbLine
 10
915.0
 20
600.0
 30
0.0
 11
985.0
 21
600.0
 31
0.0
  0
LINE
  5
FA
330
17
100
AcDbEntity
  8
TRACE_MAIN
100
AcDbLine
 10
1103.0
 20
600.0
 30
0.0
 11
1174.0
 21
600.0
 31
0.0
  0
LINE
  5
FB
330
17
100
AcDbEntity
  8
TRACE_MAIN
100
AcDbLine
 10
26.0
 20
280.0
 30
0.0
 11
144.0
 21
280.0
 31
0.0
  0
LINE
  5
FC
330
17
100
AcDbEntity
  8
TRACE_MAIN
100
AcDbLine
 10
1233.0
 20
1008.0
 30
0.0
 11
1265.0
 21
1008.0
 31
0.0
  0
LINE
  5
FD
330
17
100
AcDbEntity
  8
TRACE_MAIN
100
AcDbLine
 10
1279.0
 20
1008.0
 30
0.0
 11
1327.0
 21
1008.0
 31
0.0
  0
LINE
  5
FE
330
17
100
AcDbEntity
  8
TRACE_MAIN
100
AcDbLine
 10
157.0
 20
740.0
 30
0.0
 11
204.0
 21
740.0
 31
0.0
  0
LINE
  5
FF
330
17
100
AcDbEntity
  8
TRACE_MAIN
100
AcDbLine
 10
217.0
 20
740.0
 30
0.0
 11
265.0
 21
740.0
 31
0.0
  0
LINE
  5
100
330
17
100
AcDbEntity
  8
TRACE_MAIN
100
AcDbLine
 10
401.0
 20
740.0
 30
0.0
 11
435.0
 21
740.0
 31
0.0
  0
LINE
  5
101
330
17
100
AcDbEntity
  8
TRACE_MAIN
100
AcDbLine
 10
300.0
 20
1220.0
 30
0.0
 11
404.0
 21
1220.0
 31
0.0
  0
LINE
  5
102
330
17
100
AcDbEntity
  8
TRACE_MAIN
100
AcDbLine
 10
417.0
 20
1220.0
 30
0.0
 11
471.0
 21
1220.0
 31
0.0
  0
LINE
  5
103
330
17
100
AcDbEntity
  8
TRACE_MAIN
100
AcDbLine
 10
1088.0
 20
804.0
 30
0.0
 11
1132.0
 21
804.0
 31
0.0
  0
LINE
  5
104
330
17
100
AcDbEntity
  8
TRACE_MAIN
100
AcDbLine
 10
109.0
 20
736.0
 30
0.0
 11
145.0
 21
736.0
 31
0.0
  0
LINE
  5
105
330
17
100
AcDbEntity
  8
TRACE_MAIN
100
AcDbLine
 10
157.0
 20
736.0
 30
0.0
 11
205.0
 21
736.0
 31
0.0
  0
LINE
  5
106
330
17
100
AcDbEntity
  8
TRACE_MAIN
100
AcDbLine
 10
217.0
 20
736.0
 30
0.0
 11
266.0
 21
736.0
 31
0.0
  0
LINE
  5
107
330
17
100
AcDbEntity
  8
TRACE_MAIN
100
AcDbLine
 10
301.0
 20
1176.0
 30
0.0
 11
334.0
 21
1176.0
 31
0.0
  0
LINE
  5
108
330
17
100
AcDbEntity
  8
TRACE_MAIN
100
AcDbLine
 10
434.0
 20
1176.0
 30
0.0
 11
521.0
 21
1176.0
 31
0.0
  0
LINE
  5
109
330
17
100
AcDbEntity
  8
TRACE_MAIN
100
AcDbLine
 10
367.0
 20
436.0
 30
0.0
 11
399.0
 21
436.0
 31
0.0
  0
LINE
  5
10A
330
17
100
AcDbEntity
  8
TRACE_MAIN
100
AcDbLine
 10
461.0
 20
436.0
 30
0.0
 11
493.0
 21
436.0
 31
0.0
  0
LINE
  5
10B
330
17
100
AcDbEntity
  8
TRACE_MAIN
100
AcDbLine
 10
555.0
 20
436.0
 30
0.0
 11
587.0
 21
436.0
 31
0.0
  0
LINE
  5
10C
330
17
100
AcDbEntity
  8
TRACE_MAIN
100
AcDbLine
 10
977.0
 20
436.0
 30
0.0
 11
1006.0
 21
436.0
 31
0.0
  0
LINE
  5
10D
330
17
100
AcDbEntity
  8
TRACE_MAIN
100
AcDbLine
 10
1162.0
 20
436.0
 30
0.0
 11
1193.0
 21
436.0
 31
0.0
  0
LINE
  5
10E
330
17
100
AcDbEntity
  8
TRACE_MAIN
100
AcDbLine
 10
1231.0
 20
1016.0
 30
0.0
 11
1263.0
 21
1016.0
 31
0.0
  0
LINE
  5
10F
330
17
100
AcDbEntity
  8
TRACE_MAIN
100
AcDbLine
 10
1277.0
 20
1016.0
 30
0.0
 11
1325.0
 21
1016.0
 31
0.0
  0
LINE
  5
110
330
17
100
AcDbEntity
  8
TRACE_MAIN
100
AcDbLine
 10
397.0
 20
492.0
 30
0.0
 11
430.0
 21
492.0
 31
0.0
  0
LINE
  5
111
330
17
100
AcDbEntity
  8
TRACE_MAIN
100
AcDbLine
 10
451.0
 20
492.0
 30
0.0
 11
479.0
 21
492.0
 31
0.0
  0
LINE
  5
112
330
17
100
AcDbEntity
  8
TRACE_MAIN
100
AcDbLine
 10
491.0
 20
492.0
 30
0.0
 11
530.0
 21
492.0
 31
0.0
  0
LINE
  5
113
330
17
100
AcDbEntity
  8
TRACE_MAIN
100
AcDbLine
 10
897.0
 20
492.0
 30
0.0
 11
946.0
 21
492.0
 31
0.0
  0
LINE
  5
114
330
17
100
AcDbEntity
  8
TRACE_MAIN
100
AcDbLine
 10
992.0
 20
492.0
 30
0.0
 11
1043.0
 21
492.0
 31
0.0
  0
LINE
  5
115
330
17
100
AcDbEntity
  8
TRACE_MAIN
100
AcDbLine
 10
155.0
 20
440.0
 30
0.0
 11
193.0
 21
440.0
 31
0.0
  0
LINE
  5
116
330
17
100
AcDbEntity
  8
TRACE_MAIN
100
AcDbLine
 10
371.0
 20
440.0
 30
0.0
 11
399.0
 21
440.0
 31
0.0
  0
LINE
  5
117
330
17
100
AcDbEntity
  8
TRACE_MAIN
100
AcDbLine
 10
461.0
 20
440.0
 30
0.0
 11
493.0
 21
440.0
 31
0.0
  0
LINE
  5
118
330
17
100
AcDbEntity
  8
TRACE_MAIN
100
AcDbLine
 10
559.0
 20
440.0
 30
0.0
 11
587.0
 21
440.0
 31
0.0
  0
LINE
  5
119
330
17
100
AcDbEntity
  8
TRACE_MAIN
100
AcDbLine
 10
1177.0
 20
440.0
 30
0.0
 11
1206.0
 21
440.0
 31
0.0
  0
LINE
  5
11A
330
17
100
AcDbEntity
  8
TRACE_MAIN
100
AcDbLine
 10
297.0
 20
504.0
 30
0.0
 11
362.0
 21
504.0
 31
0.0
  0
LINE
  5
11B
330
17
100
AcDbEntity
  8
TRACE_MAIN
100
AcDbLine
 10
475.0
 20
504.0
 30
0.0
 11
556.0
 21
504.0
 31
0.0
  0
LINE
  5
11C
330
17
100
AcDbEntity
  8
TRACE_MAIN
100
AcDbLine
 10
1271.0
 20
944.0
 30
0.0
 11
1304.0
 21
944.0
 31
0.0
  0
LINE
  5
11D
330
17
100
AcDbEntity
  8
TRACE_MAIN
100
AcDbLine
 10
699.0
 20
896.0
 30
0.0
 11
744.0
 21
896.0
 31
0.0
  0
LINE
  5
11E
330
17
100
AcDbEntity
  8
TRACE_MAIN
100
AcDbLine
 10
45.0
 20
252.0
 30
0.0
 11
109.0
 21
252.0
 31
0.0
  0
LINE
  5
11F
330
17
100
AcDbEntity
  8
TRACE_MAIN
100
AcDbLine
 10
129.0
 20
252.0
 30
0.0
 11
160.0
 21
252.0
 31
0.0
  0
LINE
  5
120
330
17
100
AcDbEntity
  8
TRACE_MAIN
100
AcDbLine
 10
185.0
 20
252.0
 30
0.0
 11
227.0
 21
252.0
 31
0.0
  0
LINE
  5
121
330
17
100
AcDbEntity
  8
TRACE_MAIN
100
AcDbLine
 10
1282.0
 20
252.0
 30
0.0
 11
1373.0
 21
252.0
 31
0.0
  0
LINE
  5
122
330
17
100
AcDbEntity
  8
TRACE_MAIN
100
AcDbLine
 10
992.0
 20
856.0
 30
0.0
 11
1039.0
 21
856.0
 31
0.0
  0
LINE
  5
123
330
17
100
AcDbEntity
  8
TRACE_MAIN
100
AcDbLine
 10
309.0
 20
1068.0
 30
0.0
 11
357.0
 21
1068.0
 31
0.0
  0
LINE
  5
124
330
17
100
AcDbEntity
  8
TRACE_MAIN
100
AcDbLine
 10
430.0
 20
1068.0
 30
0.0
 11
497.0
 21
1068.0
 31
0.0
  0
LINE
  5
125
330
17
100
AcDbEntity
  8
TRACE_MAIN
100
AcDbLine
 10
528.0
 20
1068.0
 30
0.0
 11
585.0
 21
1068.0
 31
0.0
  0
LINE
  5
126
330
17
100
AcDbEntity
  8
TRACE_MAIN
100
AcDbLine
 10
601.0
 20
1068.0
 30
0.0
 11
639.0
 21
1068.0
 31
0.0
  0
LINE
  5
127
330
17
100
AcDbEntity
  8
TRACE_MAIN
100
AcDbLine
 10
55.0
 20
284.0
 30
0.0
 11
144.0
 21
284.0
 31
0.0
  0
LINE
  5
128
330
17
100
AcDbEntity
  8
TRACE_MAIN
100
AcDbLine
 10
296.0
 20
488.0
 30
0.0
 11
334.0
 21
488.0
 31
0.0
  0
LINE
  5
129
330
17
100
AcDbEntity
  8
TRACE_MAIN
100
AcDbLine
 10
364.0
 20
488.0
 30
0.0
 11
409.0
 21
488.0
 31
0.0
  0
LINE
  5
12A
330
17
100
AcDbEntity
  8
TRACE_MAIN
100
AcDbLine
 10
466.0
 20
488.0
 30
0.0
 11
521.0
 21
488.0
 31
0.0
  0
LINE
  5
12B
330
17
100
AcDbEntity
  8
TRACE_MAIN
100
AcDbLine
 10
587.0
 20
904.0
 30
0.0
 11
637.0
 21
904.0
 31
0.0
  0
LINE
  5
12C
330
17
100
AcDbEntity
  8
TRACE_MAIN
100
AcDbLine
 10
650.0
 20
904.0
 30
0.0
 11
684.0
 21
904.0
 31
0.0
  0
LINE
  5
12D
330
17
100
AcDbEntity
  8
TRACE_MAIN
100
AcDbLine
 10
997.0
 20
788.0
 30
0.0
 11
1047.0
 21
788.0
 31
0.0
  0
LINE
  5
12E
330
17
100
AcDbEntity
  8
TRACE_MAIN
100
AcDbLine
 10
996.0
 20
820.0
 30
0.0
 11
1052.0
 21
820.0
 31
0.0
  0
LINE
  5
12F
330
17
100
AcDbEntity
  8
TRACE_MAIN
100
AcDbLine
 10
250.0
 20
908.0
 30
0.0
 11
282.0
 21
908.0
 31
0.0
  0
LINE
  5
130
330
17
100
AcDbEntity
  8
TRACE_MAIN
100
AcDbLine
 10
297.0
 20
908.0
 30
0.0
 11
343.0
 21
908.0
 31
0.0
  0
LINE
  5
131
330
17
100
AcDbEntity
  8
TRACE_MAIN
100
AcDbLine
 10
586.0
 20
908.0
 30
0.0
 11
622.0
 21
908.0
 31
0.0
  0
LINE
  5
132
330
17
100
AcDbEntity
  8
TRACE_MAIN
100
AcDbLine
 10
175.0
 20
408.0
 30
0.0
 11
245.0
 21
408.0
 31
0.0
  0
LINE
  5
133
330
17
100
AcDbEntity
  8
TRACE_MAIN
100
AcDbLine
 10
480.0
 20
852.0
 30
0.0
 11
522.0
 21
852.0
 31
0.0
  0
LINE
  5
134
330
17
100
AcDbEntity
  8
TRACE_MAIN
100
AcDbLine
 10
997.0
 20
852.0
 30
0.0
 11
1041.0
 21
852.0
 31
0.0
  0
LINE
  5
135
330
17
100
AcDbEntity
  8
TRACE_MAIN
100
AcDbLine
 10
1304.0
 20
240.0
 30
0.0
 11
1365.0
 21
240.0
 31
0.0
  0
LINE
  5
136
330
17
100
AcDbEntity
  8
TRACE_MAIN
100
AcDbLine
 10
248.0
 20
916.0
 30
0.0
 11
279.0
 21
916.0
 31
0.0
  0
LINE
  5
137
330
17
100
AcDbEntity
  8
TRACE_MAIN
100
AcDbLine
 10
294.0
 20
916.0
 30
0.0
 11
342.0
 21
916.0
 31
0.0
  0
LINE
  5
138
330
17
100
AcDbEntity
  8
TRACE_MAIN
100
AcDbLine
 10
1273.0
 20
916.0
 30
0.0
 11
1304.0
 21
916.0
 31
0.0
  0
LINE
  5
139
330
17
100
AcDbEntity
  8
TRACE_MAIN
100
AcDbLine
 10
820.0
 20
1080.0
 30
0.0
 11
887.0
 21
1080.0
 31
0.0
  0
LINE
  5
13A
330
17
100
AcDbEntity
  8
TRACE_MAIN
100
AcDbLine
 10
916.0
 20
936.0
 30
0.0
 11
1012.0
 21
936.0
 31
0.0
  0
LINE
  5
13B
330
17
100
AcDbEntity
  8
TRACE_MAIN
100
AcDbLine
 10
1026.0
 20
936.0
 30
0.0
 11
1070.0
 21
936.0
 31
0.0
  0
LINE
  5
13C
330
17
100
AcDbEntity
  8
TRACE_MAIN
100
AcDbLine
 10
1266.0
 20
936.0
 30
0.0
 11
1310.0
 21
936.0
 31
0.0
  0
LINE
  5
13D
330
17
100
AcDbEntity
  8
TRACE_MAIN
100
AcDbLine
 10
388.0
 20
724.0
 30
0.0
 11
444.0
 21
724.0
 31
0.0
  0
LINE
  5
13E
330
17
100
AcDbEntity
  8
TRACE_MAIN
100
AcDbLine
 10
904.0
 20
724.0
 30
0.0
 11
959.0
 21
724.0
 31
0.0
  0
LINE
  5
13F
330
17
100
AcDbEntity
  8
TRACE_MAIN
100
AcDbLine
 10
393.0
 20
756.0
 30
0.0
 11
455.0
 21
756.0
 31
0.0
  0
LINE
  5
140
330
17
100
AcDbEntity
  8
TRACE_MAIN
100
AcDbLine
 10
1126.0
 20
756.0
 30
0.0
 11
1162.0
 21
756.0
 31
0.0
  0
LINE
  5
141
330
17
100
AcDbEntity
  8
TRACE_MAIN
100
AcDbLine
 10
1266.0
 20
404.0
 30
0.0
 11
1338.0
 21
404.0
 31
0.0
  0
LINE
  5
142
330
17
100
AcDbEntity
  8
TRACE_MAIN
100
AcDbLine
 10
110.0
 20
732.0
 30
0.0
 11
145.0
 21
732.0
 31
0.0
  0
LINE
  5
143
330
17
100
AcDbEntity
  8
TRACE_MAIN
100
AcDbLine
 10
219.0
 20
732.0
 30
0.0
 11
266.0
 21
732.0
 31
0.0
  0
LINE
  5
144
330
17
100
AcDbEntity
  8
TRACE_MAIN
100
AcDbLine
 10
901.0
 20
732.0
 30
0.0
 11
960.0
 21
732.0
 31
0.0
  0
LINE
  5
145
330
17
100
AcDbEntity
  8
TRACE_MAIN
100
AcDbLine
 10
1266.0
 20
400.0
 30
0.0
 11
1319.0
 21
400.0
 31
0.0
  0
LINE
  5
146
330
17
100
AcDbEntity
  8
TRACE_MAIN
100
AcDbLine
 10
238.0
 20
416.0
 30
0.0
 11
271.0
 21
416.0
 31
0.0
  0
LINE
  5
147
330
17
100
AcDbEntity
  8
TRACE_MAIN
100
AcDbLine
 10
1241.0
 20
416.0
 30
0.0
 11
1275.0
 21
416.0
 31
0.0
  0
LINE
  5
148
330
17
100
AcDbEntity
  8
TRACE_MAIN
100
AcDbLine
 10
155.0
 20
444.0
 30
0.0
 11
192.0
 21
444.0
 31
0.0
  0
LINE
  5
149
330
17
100
AcDbEntity
  8
TRACE_MAIN
100
AcDbLine
 10
988.0
 20
444.0
 30
0.0
 11
1019.0
 21
444.0
 31
0.0
  0
LINE
  5
14A
330
17
100
AcDbEntity
  8
TRACE_MAIN
100
AcDbLine
 10
507.0
 20
980.0
 30
0.0
 11
567.0
 21
980.0
 31
0.0
  0
LINE
  5
14B
330
17
100
AcDbEntity
  8
TRACE_MAIN
100
AcDbLine
 10
630.0
 20
980.0
 30
0.0
 11
667.0
 21
980.0
 31
0.0
  0
LINE
  5
14C
330
17
100
AcDbEntity
  8
TRACE_MAIN
100
AcDbLine
 10
387.0
 20
728.0
 30
0.0
 11
427.0
 21
728.0
 31
0.0
  0
LINE
  5
14D
330
17
100
AcDbEntity
  8
TRACE_MAIN
100
AcDbLine
 10
212.0
 20
320.0
 30
0.0
 11
265.0
 21
320.0
 31
0.0
  0
LINE
  5
14E
330
17
100
AcDbEntity
  8
TRACE_MAIN
100
AcDbLine
 10
673.0
 20
72.0
 30
0.0
 11
718.0
 21
72.0
 31
0.0
  0
LINE
  5
14F
330
17
100
AcDbEntity
  8
TRACE_MAIN
100
AcDbLine
 10
773.0
 20
40.0
 30
0.0
 11
806.0
 21
40.0
 31
0.0
  0
LINE
  5
150
330
17
100
AcDbEntity
  8
TRACE_MAIN
100
AcDbLine
 10
108.0
 20
744.0
 30
0.0
 11
142.0
 21
744.0
 31
0.0
  0
LINE
  5
151
330
17
100
AcDbEntity
  8
TRACE_MAIN
100
AcDbLine
 10
156.0
 20
744.0
 30
0.0
 11
203.0
 21
744.0
 31
0.0
  0
LINE
  5
152
330
17
100
AcDbEntity
  8
TRACE_MAIN
100
AcDbLine
 10
1233.0
 20
1020.0
 30
0.0
 11
1263.0
 21
1020.0
 31
0.0
  0
LINE
  5
153
330
17
100
AcDbEntity
  8
TRACE_MAIN
100
AcDbLine
 10
1266.0
 20
348.0
 30
0.0
 11
1338.0
 21
348.0
 31
0.0
  0
LINE
  5
154
330
17
100
AcDbEntity
  8
TRACE_MAIN
100
AcDbLine
 10
777.0
 20
136.0
 30
0.0
 11
807.0
 21
136.0
 31
0.0
  0
LINE
  5
155
330
17
100
AcDbEntity
  8
TRACE_MAIN
100
AcDbLine
 10
1331.0
 20
244.0
 30
0.0
 11
1364.0
 21
244.0
 31
0.0
  0
LINE
  5
156
330
17
100
AcDbEntity
  8
TRACE_MAIN
100
AcDbLine
 10
1267.0
 20
940.0
 30
0.0
 11
1305.0
 21
940.0
 31
0.0
  0
LINE
  5
157
330
17
100
AcDbEntity
  8
TRACE_MAIN
100
AcDbLine
 10
335.0
 20
516.0
 30
0.0
 11
380.0
 21
516.0
 31
0.0
  0
LINE
  5
158
330
17
100
AcDbEntity
  8
TRACE_MAIN
100
AcDbLine
 10
672.0
 20
168.0
 30
0.0
 11
718.0
 21
168.0
 31
0.0
  0
LINE
  5
159
330
17
100
AcDbEntity
  8
TRACE_MAIN
100
AcDbLine
 10
358.0
 20
604.0
 30
0.0
 11
429.0
 21
604.0
 31
0.0
  0
LINE
  5
15A
330
17
100
AcDbEntity
  8
TRACE_MAIN
100
AcDbLine
 10
672.0
 20
76.0
 30
0.0
 11
718.0
 21
76.0
 31
0.0
  0
LINE
  5
15B
330
17
100
AcDbEntity
  8
TRACE_MAIN
100
AcDbLine
 10
405.0
 20
792.0
 30
0.0
 11
447.0
 21
792.0
 31
0.0
  0
LINE
  5
15C
330
17
100
AcDbEntity
  8
TRACE_MAIN
100
AcDbLine
 10
1019.0
 20
472.0
 30
0.0
 11
1054.0
 21
472.0
 31
0.0
  0
LINE
  5
15D
330
17
100
AcDbEntity
  8
TRACE_MAIN
100
AcDbLine
 10
203.0
 20
456.0
 30
0.0
 11
235.0
 21
456.0
 31
0.0
  0
LINE
  5
15E
330
17
100
AcDbEntity
  8
TRACE_MAIN
100
AcDbLine
 10
1156.0
 20
228.0
 30
0.0
 11
1186.0
 21
228.0
 31
0.0
  0
LINE
  5
15F
330
17
100
AcDbEntity
  8
TRACE_MAIN
100
AcDbLine
 10
926.0
 20
1112.0
 30
0.0
 11
992.0
 21
1112.0
 31
0.0
  0
LINE
  5
160
330
17
100
AcDbEntity
  8
TRACE_MAIN
100
AcDbLine
 10
559.0
 20
692.0
 30
0.0
 11
595.0
 21
692.0
 31
0.0
  0
LINE
  5
161
330
17
100
AcDbEntity
  8
TRACE_MAIN
100
AcDbLine
 10
939.0
 20
692.0
 30
0.0
 11
974.0
 21
692.0
 31
0.0
  0
LINE
  5
162
330
17
100
AcDbEntity
  8
TRACE_MAIN
100
AcDbLine
 10
1241.0
 20
336.0
 30
0.0
 11
1275.0
 21
336.0
 31
0.0
  0
LINE
  5
163
330
17
100
AcDbEntity
  8
TRACE_MAIN
100
AcDbLine
 10
458.0
 20
340.0
 30
0.0
 11
486.0
 21
340.0
 31
0.0
  0
LINE
  5
164
330
17
100
AcDbEntity
  8
TRACE_MAIN
100
AcDbLine
 10
561.0
 20
624.0
 30
0.0
 11
594.0
 21
624.0
 31
0.0
  0
LINE
  5
165
330
17
100
AcDbEntity
  8
TRACE_MAIN
100
AcDbLine
 10
1164.0
 20
82.0
 30
0.0
 11
1164.0
 21
932.0
 31
0.0
  0
LINE
  5
166
330
17
100
AcDbEntity
  8
TRACE_MAIN
100
AcDbLine
 10
1240.0
 20
11.0
 30
0.0
 11
1240.0
 21
932.0
 31
0.0
  0
LINE
  5
167
330
17
100
AcDbEntity
  8
TRACE_MAIN
100
AcDbLine
 10
368.0
 20
84.0
 30
0.0
 11
368.0
 21
933.0
 31
0.0
  0
LINE
  5
168
330
17
100
AcDbEntity
  8
TRACE_MAIN
100
AcDbLine
 10
1068.0
 20
178.0
 30
0.0
 11
1068.0
 21
846.0
 31
0.0
  0
LINE
  5
169
330
17
100
AcDbEntity
  8
TRACE_MAIN
100
AcDbLine
 10
560.0
 20
273.0
 30
0.0
 11
560.0
 21
925.0
 31
0.0
  0
LINE
  5
16A
330
17
100
AcDbEntity
  8
TRACE_MAIN
100
AcDbLine
 10
464.0
 20
180.0
 30
0.0
 11
464.0
 21
848.0
 31
0.0
  0
LINE
  5
16B
330
17
100
AcDbEntity
  8
TRACE_MAIN
100
AcDbLine
 10
272.0
 20
14.0
 30
0.0
 11
272.0
 21
801.0
 31
0.0
  0
LINE
  5
16C
330
17
100
AcDbEntity
  8
TRACE_MAIN
100
AcDbLine
 10
1072.0
 20
169.0
 30
0.0
 11
1072.0
 21
846.0
 31
0.0
  0
LINE
  5
16D
330
17
100
AcDbEntity
  8
TRACE_MAIN
100
AcDbLine
 10
556.0
 20
273.0
 30
0.0
 11
556.0
 21
926.0
 31
0.0
  0
LINE
  5
16E
330
17
100
AcDbEntity
  8
TRACE_MAIN
100
AcDbLine
 10
976.0
 20
272.0
 30
0.0
 11
976.0
 21
914.0
 31
0.0
  0
LINE
  5
16F
330
17
100
AcDbEntity
  8
TRACE_MAIN
100
AcDbLine
 10
372.0
 20
84.0
 30
0.0
 11
372.0
 21
354.0
 31
0.0
  0
LINE
  5
170
330
17
100
AcDbEntity
  8
TRACE_MAIN
100
AcDbLine
 10
1160.0
 20
82.0
 30
0.0
 11
1160.0
 21
289.0
 31
0.0
  0
LINE
  5
171
330
17
100
AcDbEntity
  8
TRACE_MAIN
100
AcDbLine
 10
1160.0
 20
780.0
 30
0.0
 11
1160.0
 21
856.0
 31
0.0
  0
LINE
  5
172
330
17
100
AcDbEntity
  8
TRACE_MAIN
100
AcDbLine
 10
1236.0
 20
11.0
 30
0.0
 11
1236.0
 21
286.0
 31
0.0
  0
LINE
  5
173
330
17
100
AcDbEntity
  8
TRACE_MAIN
100
AcDbLine
 10
1236.0
 20
359.0
 30
0.0
 11
1236.0
 21
392.0
 31
0.0
  0
LINE
  5
174
330
17
100
AcDbEntity
  8
TRACE_MAIN
100
AcDbLine
 10
276.0
 20
14.0
 30
0.0
 11
276.0
 21
318.0
 31
0.0
  0
LINE
  5
175
330
17
100
AcDbEntity
  8
TRACE_MAIN
100
AcDbLine
 10
184.0
 20
14.0
 30
0.0
 11
184.0
 21
189.0
 31
0.0
  0
LINE
  5
176
330
17
100
AcDbEntity
  8
TRACE_MAIN
100
AcDbLine
 10
208.0
 20
28.0
 30
0.0
 11
208.0
 21
237.0
 31
0.0
  0
LINE
  5
177
330
17
100
AcDbEntity
  8
TRACE_MAIN
100
AcDbLine
 10
236.0
 20
295.0
 30
0.0
 11
236.0
 21
325.0
 31
0.0
  0
LINE
  5
178
330
17
100
AcDbEntity
  8
TRACE_MAIN
100
AcDbLine
 10
236.0
 20
340.0
 30
0.0
 11
236.0
 21
552.0
 31
0.0
  0
LINE
  5
179
330
17
100
AcDbEntity
  8
TRACE_MAIN
100
AcDbLine
 10
1276.0
 20
254.0
 30
0.0
 11
1276.0
 21
415.0
 31
0.0
  0
LINE
  5
17A
330
17
100
AcDbEntity
  8
TRACE_MAIN
100
AcDbLine
 10
1276.0
 20
916.0
 30
0.0
 11
1276.0
 21
944.0
 31
0.0
  0
LINE
  5
17B
330
17
100
AcDbEntity
  8
TRACE_MAIN
100
AcDbLine
 10
656.0
 20
25.0
 30
0.0
 11
656.0
 21
241.0
 31
0.0
  0
LINE
  5
17C
330
17
100
AcDbEntity
  8
TRACE_MAIN
100
AcDbLine
 10
232.0
 20
363.0
 30
0.0
 11
232.0
 21
395.0
 31
0.0
  0
LINE
  5
17D
330
17
100
AcDbEntity
  8
TRACE_MAIN
100
AcDbLine
 10
232.0
 20
425.0
 30
0.0
 11
232.0
 21
552.0
 31
0.0
  0
LINE
  5
17E
330
17
100
AcDbEntity
  8
TRACE_MAIN
100
AcDbLine
 10
408.0
 20
582.0
 30
0.0
 11
408.0
 21
727.0
 31
0.0
  0
LINE
  5
17F
330
17
100
AcDbEntity
  8
TRACE_MAIN
100
AcDbLine
 10
408.0
 20
736.0
 30
0.0
 11
408.0
 21
772.0
 31
0.0
  0
LINE
  5
180
330
17
100
AcDbEntity
  8
TRACE_MAIN
100
AcDbLine
 10
1112.0
 20
478.0
 30
0.0
 11
1112.0
 21
517.0
 31
0.0
  0
LINE
  5
181
330
17
100
AcDbEntity
  8
TRACE_MAIN
100
AcDbLine
 10
1112.0
 20
694.0
 30
0.0
 11
1112.0
 21
770.0
 31
0.0
  0
LINE
  5
182
330
17
100
AcDbEntity
  8
TRACE_MAIN
100
AcDbLine
 10
1112.0
 20
781.0
 30
0.0
 11
1112.0
 21
870.0
 31
0.0
  0
LINE
  5
183
330
17
100
AcDbEntity
  8
TRACE_MAIN
100
AcDbLine
 10
1088.0
 20
76.0
 30
0.0
 11
1088.0
 21
105.0
 31
0.0
  0
LINE
  5
184
330
17
100
AcDbEntity
  8
TRACE_MAIN
100
AcDbLine
 10
1088.0
 20
492.0
 30
0.0
 11
1088.0
 21
520.0
 31
0.0
  0
LINE
  5
185
330
17
100
AcDbEntity
  8
TRACE_MAIN
100
AcDbLine
 10
1088.0
 20
699.0
 30
0.0
 11
1088.0
 21
729.0
 31
0.0
  0
LINE
  5
186
330
17
100
AcDbEntity
  8
TRACE_MAIN
100
AcDbLine
 10
1088.0
 20
801.0
 30
0.0
 11
1088.0
 21
874.0
 31
0.0
  0
LINE
  5
187
330
17
100
AcDbEntity
  8
TRACE_MAIN
100
AcDbLine
 10
1136.0
 20
579.0
 30
0.0
 11
1136.0
 21
623.0
 31
0.0
  0
LINE
  5
188
330
17
100
AcDbEntity
  8
TRACE_MAIN
100
AcDbLine
 10
1136.0
 20
689.0
 30
0.0
 11
1136.0
 21
770.0
 31
0.0
  0
LINE
  5
189
330
17
100
AcDbEntity
  8
TRACE_MAIN
100
AcDbLine
 10
1124.0
 20
596.0
 30
0.0
 11
1124.0
 21
686.0
 31
0.0
  0
LINE
  5
18A
330
17
100
AcDbEntity
  8
TRACE_MAIN
100
AcDbLine
 10
1124.0
 20
736.0
 30
0.0
 11
1124.0
 21
768.0
 31
0.0
  0
LINE
  5
18B
330
17
100
AcDbEntity
  8
TRACE_MAIN
100
AcDbLine
 10
172.0
 20
437.0
 30
0.0
 11
172.0
 21
550.0
 31
0.0
  0
LINE
  5
18C
330
17
100
AcDbEntity
  8
TRACE_MAIN
100
AcDbLine
 10
1104.0
 20
479.0
 30
0.0
 11
1104.0
 21
513.0
 31
0.0
  0
LINE
  5
18D
330
17
100
AcDbEntity
  8
TRACE_MAIN
100
AcDbLine
 10
1104.0
 20
712.0
 30
0.0
 11
1104.0
 21
740.0
 31
0.0
  0
LINE
  5
18E
330
17
100
AcDbEntity
  8
TRACE_MAIN
100
AcDbLine
 10
1104.0
 20
788.0
 30
0.0
 11
1104.0
 21
871.0
 31
0.0
  0
LINE
  5
18F
330
17
100
AcDbEntity
  8
TRACE_MAIN
100
AcDbLine
 10
1140.0
 20
579.0
 30
0.0
 11
1140.0
 21
623.0
 31
0.0
  0
LINE
  5
190
330
17
100
AcDbEntity
  8
TRACE_MAIN
100
AcDbLine
 10
1140.0
 20
689.0
 30
0.0
 11
1140.0
 21
740.0
 31
0.0
  0
LINE
  5
191
330
17
100
AcDbEntity
  8
TRACE_MAIN
100
AcDbLine
 10
1140.0
 20
797.0
 30
0.0
 11
1140.0
 21
861.0
 31
0.0
  0
LINE
  5
192
330
17
100
AcDbEntity
  8
TRACE_MAIN
100
AcDbLine
 10
392.0
 20
483.0
 30
0.0
 11
392.0
 21
549.0
 31
0.0
  0
LINE
  5
193
330
17
100
AcDbEntity
  8
TRACE_MAIN
100
AcDbLine
 10
392.0
 20
811.0
 30
0.0
 11
392.0
 21
856.0
 31
0.0
  0
LINE
  5
194
330
17
100
AcDbEntity
  8
TRACE_MAIN
100
AcDbLine
 10
996.0
 20
172.0
 30
0.0
 11
996.0
 21
201.0
 31
0.0
  0
LINE
  5
195
330
17
100
AcDbEntity
  8
TRACE_MAIN
100
AcDbLine
 10
996.0
 20
497.0
 30
0.0
 11
996.0
 21
548.0
 31
0.0
  0
LINE
  5
196
330
17
100
AcDbEntity
  8
TRACE_MAIN
100
AcDbLine
 10
996.0
 20
808.0
 30
0.0
 11
996.0
 21
854.0
 31
0.0
  0
LINE
  5
197
330
17
100
AcDbEntity
  8
TRACE_MAIN
100
AcDbLine
 10
736.0
 20
71.0
 30
0.0
 11
736.0
 21
105.0
 31
0.0
  0
LINE
  5
198
330
17
100
AcDbEntity
  8
TRACE_MAIN
100
AcDbLine
 10
548.0
 20
173.0
 30
0.0
 11
548.0
 21
202.0
 31
0.0
  0
LINE
  5
199
330
17
100
AcDbEntity
  8
TRACE_MAIN
100
AcDbLine
 10
548.0
 20
476.0
 30
0.0
 11
548.0
 21
514.0
 31
0.0
  0
LINE
  5
19A
330
17
100
AcDbEntity
  8
TRACE_MAIN
100
AcDbLine
 10
548.0
 20
793.0
 30
0.0
 11
548.0
 21
845.0
 31
0.0
  0
LINE
  5
19B
330
17
100
AcDbEntity
  8
TRACE_MAIN
100
AcDbLine
 10
1148.0
 20
837.0
 30
0.0
 11
1148.0
 21
866.0
 31
0.0
  0
LINE
  5
19C
330
17
100
AcDbEntity
  8
TRACE_MAIN
100
AcDbLine
 10
1280.0
 20
254.0
 30
0.0
 11
1280.0
 21
414.0
 31
0.0
  0
LINE
  5
19D
330
17
100
AcDbEntity
  8
TRACE_MAIN
100
AcDbLine
 10
252.0
 20
730.0
 30
0.0
 11
252.0
 21
788.0
 31
0.0
  0
LINE
  5
19E
330
17
100
AcDbEntity
  8
TRACE_MAIN
100
AcDbLine
 10
1144.0
 20
797.0
 30
0.0
 11
1144.0
 21
838.0
 31
0.0
  0
LINE
  5
19F
330
17
100
AcDbEntity
  8
TRACE_MAIN
100
AcDbLine
 10
1092.0
 20
495.0
 30
0.0
 11
1092.0
 21
548.0
 31
0.0
  0
LINE
  5
1A0
330
17
100
AcDbEntity
  8
TRACE_MAIN
100
AcDbLine
 10
1092.0
 20
699.0
 30
0.0
 11
1092.0
 21
728.0
 31
0.0
  0
LINE
  5
1A1
330
17
100
AcDbEntity
  8
TRACE_MAIN
100
AcDbLine
 10
1092.0
 20
840.0
 30
0.0
 11
1092.0
 21
874.0
 31
0.0
  0
LINE
  5
1A2
330
17
100
AcDbEntity
  8
TRACE_MAIN
100
AcDbLine
 10
1336.0
 20
929.0
 30
0.0
 11
1336.0
 21
1041.0
 31
0.0
  0
LINE
  5
1A3
330
17
100
AcDbEntity
  8
TRACE_MAIN
100
AcDbLine
 10
1132.0
 20
473.0
 30
0.0
 11
1132.0
 21
512.0
 31
0.0
  0
LINE
  5
1A4
330
17
100
AcDbEntity
  8
TRACE_MAIN
100
AcDbLine
 10
1132.0
 20
809.0
 30
0.0
 11
1132.0
 21
842.0
 31
0.0
  0
LINE
  5
1A5
330
17
100
AcDbEntity
  8
TRACE_MAIN
100
AcDbLine
 10
1096.0
 20
76.0
 30
0.0
 11
1096.0
 21
105.0
 31
0.0
  0
LINE
  5
1A6
330
17
100
AcDbEntity
  8
TRACE_MAIN
100
AcDbLine
 10
1096.0
 20
478.0
 30
0.0
 11
1096.0
 21
511.0
 31
0.0
  0
LINE
  5
1A7
330
17
100
AcDbEntity
  8
TRACE_MAIN
100
AcDbLine
 10
1096.0
 20
780.0
 30
0.0
 11
1096.0
 21
865.0
 31
0.0
  0
LINE
  5
1A8
330
17
100
AcDbEntity
  8
TRACE_MAIN
100
AcDbLine
 10
784.0
 20
1011.0
 30
0.0
 11
784.0
 21
1054.0
 31
0.0
  0
LINE
  5
1A9
330
17
100
AcDbEntity
  8
TRACE_MAIN
100
AcDbLine
 10
936.0
 20
635.0
 30
0.0
 11
936.0
 21
690.0
 31
0.0
  0
LINE
  5
1AA
330
17
100
AcDbEntity
  8
TRACE_MAIN
100
AcDbLine
 10
1100.0
 20
695.0
 30
0.0
 11
1100.0
 21
727.0
 31
0.0
  0
LINE
  5
1AB
330
17
100
AcDbEntity
  8
TRACE_MAIN
100
AcDbLine
 10
1100.0
 20
780.0
 30
0.0
 11
1100.0
 21
859.0
 31
0.0
  0
LINE
  5
1AC
330
17
100
AcDbEntity
  8
TRACE_MAIN
100
AcDbLine
 10
1108.0
 20
794.0
 30
0.0
 11
1108.0
 21
848.0
 31
0.0
  0
LINE
  5
1AD
330
17
100
AcDbEntity
  8
TRACE_MAIN
100
AcDbLine
 10
1128.0
 20
484.0
 30
0.0
 11
1128.0
 21
512.0
 31
0.0
  0
LINE
  5
1AE
330
17
100
AcDbEntity
  8
TRACE_MAIN
100
AcDbLine
 10
1128.0
 20
684.0
 30
0.0
 11
1128.0
 21
757.0
 31
0.0
  0
LINE
  5
1AF
330
17
100
AcDbEntity
  8
TRACE_MAIN
100
AcDbLine
 10
1084.0
 20
482.0
 30
0.0
 11
1084.0
 21
535.0
 31
0.0
  0
LINE
  5
1B0
330
17
100
AcDbEntity
  8
TRACE_MAIN
100
AcDbLine
 10
404.0
 20
624.0
 30
0.0
 11
404.0
 21
668.0
 31
0.0
  0
LINE
  5
1B1
330
17
100
AcDbEntity
  8
TRACE_MAIN
100
AcDbLine
 10
404.0
 20
804.0
 30
0.0
 11
404.0
 21
859.0
 31
0.0
  0
LINE
  5
1B2
330
17
100
AcDbEntity
  8
TRACE_MAIN
100
AcDbLine
 10
532.0
 20
829.0
 30
0.0
 11
532.0
 21
864.0
 31
0.0
  0
LINE
  5
1B3
330
17
100
AcDbEntity
  8
TRACE_MAIN
100
AcDbLine
 10
400.0
 20
482.0
 30
0.0
 11
400.0
 21
518.0
 31
0.0
  0
LINE
  5
1B4
330
17
100
AcDbEntity
  8
TRACE_MAIN
100
AcDbLine
 10
400.0
 20
582.0
 30
0.0
 11
400.0
 21
625.0
 31
0.0
  0
LINE
  5
1B5
330
17
100
AcDbEntity
  8
TRACE_MAIN
100
AcDbLine
 10
536.0
 20
798.0
 30
0.0
 11
536.0
 21
832.0
 31
0.0
  0
LINE
  5
1B6
330
17
100
AcDbEntity
  8
TRACE_MAIN
100
AcDbLine
 10
536.0
 20
878.0
 30
0.0
 11
536.0
 21
910.0
 31
0.0
  0
LINE
  5
1B7
330
17
100
AcDbEntity
  8
TRACE_MAIN
100
AcDbLine
 10
496.0
 20
78.0
 30
0.0
 11
496.0
 21
108.0
 31
0.0
  0
LINE
  5
1B8
330
17
100
AcDbEntity
  8
TRACE_MAIN
100
AcDbLine
 10
1116.0
 20
780.0
 30
0.0
 11
1116.0
 21
814.0
 31
0.0
  0
LINE
  5
1B9
330
17
100
AcDbEntity
  8
TRACE_MAIN
100
AcDbLine
 10
596.0
 20
584.0
 30
0.0
 11
596.0
 21
693.0
 31
0.0
  0
LINE
  5
1BA
330
17
100
AcDbEntity
  8
TRACE_MAIN
100
AcDbLine
 10
1120.0
 20
791.0
 30
0.0
 11
1120.0
 21
825.0
 31
0.0
  0
LINE
  5
1BB
330
17
100
AcDbEntity
  8
TRACE_MAIN
100
AcDbLine
 10
1000.0
 20
77.0
 30
0.0
 11
1000.0
 21
106.0
 31
0.0
  0
LINE
  5
1BC
330
17
100
AcDbEntity
  8
TRACE_MAIN
100
AcDbLine
 10
1000.0
 20
172.0
 30
0.0
 11
1000.0
 21
200.0
 31
0.0
  0
LINE
  5
1BD
330
17
100
AcDbEntity
  8
TRACE_MAIN
100
AcDbLine
 10
1000.0
 20
497.0
 30
0.0
 11
1000.0
 21
547.0
 31
0.0
  0
LINE
  5
1BE
330
17
100
AcDbEntity
  8
TRACE_MAIN
100
AcDbLine
 10
1000.0
 20
808.0
 30
0.0
 11
1000.0
 21
855.0
 31
0.0
  0
LINE
  5
1BF
330
17
100
AcDbEntity
  8
TRACE_MAIN
100
AcDbLine
 10
432.0
 20
736.0
 30
0.0
 11
432.0
 21
772.0
 31
0.0
  0
LINE
  5
1C0
330
17
100
AcDbEntity
  8
TRACE_MAIN
100
AcDbLine
 10
432.0
 20
802.0
 30
0.0
 11
432.0
 21
856.0
 31
0.0
  0
LINE
  5
1C1
330
17
100
AcDbEntity
  8
TRACE_MAIN
100
AcDbLine
 10
1156.0
 20
778.0
 30
0.0
 11
1156.0
 21
858.0
 31
0.0
  0
LINE
  5
1C2
330
17
100
AcDbEntity
  8
TRACE_MAIN
100
AcDbLine
 10
916.0
 20
483.0
 30
0.0
 11
916.0
 21
512.0
 31
0.0
  0
LINE
  5
1C3
330
17
100
AcDbEntity
  8
TRACE_MAIN
100
AcDbLine
 10
240.0
 20
364.0
 30
0.0
 11
240.0
 21
394.0
 31
0.0
  0
LINE
  5
1C4
330
17
100
AcDbEntity
  8
TRACE_MAIN
100
AcDbLine
 10
240.0
 20
442.0
 30
0.0
 11
240.0
 21
472.0
 31
0.0
  0
LINE
  5
1C5
330
17
100
AcDbEntity
  8
TRACE_MAIN
100
AcDbLine
 10
484.0
 20
482.0
 30
0.0
 11
484.0
 21
552.0
 31
0.0
  0
LINE
  5
1C6
330
17
100
AcDbEntity
  8
TRACE_MAIN
100
AcDbLine
 10
384.0
 20
879.0
 30
0.0
 11
384.0
 21
908.0
 31
0.0
  0
LINE
  5
1C7
330
17
100
AcDbEntity
  8
TRACE_MAIN
100
AcDbLine
 10
904.0
 20
77.0
 30
0.0
 11
904.0
 21
106.0
 31
0.0
  0
LINE
  5
1C8
330
17
100
AcDbEntity
  8
TRACE_MAIN
100
AcDbLine
 10
904.0
 20
172.0
 30
0.0
 11
904.0
 21
201.0
 31
0.0
  0
LINE
  5
1C9
330
17
100
AcDbEntity
  8
TRACE_MAIN
100
AcDbLine
 10
904.0
 20
499.0
 30
0.0
 11
904.0
 21
548.0
 31
0.0
  0
LINE
  5
1CA
330
17
100
AcDbEntity
  8
TRACE_MAIN
100
AcDbLine
 10
552.0
 20
793.0
 30
0.0
 11
552.0
 21
862.0
 31
0.0
  0
LINE
  5
1CB
330
17
100
AcDbEntity
  8
TRACE_MAIN
100
AcDbLine
 10
1080.0
 20
807.0
 30
0.0
 11
1080.0
 21
843.0
 31
0.0
  0
LINE
  5
1CC
330
17
100
AcDbEntity
  8
TRACE_MAIN
100
AcDbLine
 10
992.0
 20
77.0
 30
0.0
 11
992.0
 21
105.0
 31
0.0
  0
LINE
  5
1CD
330
17
100
AcDbEntity
  8
TRACE_MAIN
100
AcDbLine
 10
992.0
 20
172.0
 30
0.0
 11
992.0
 21
200.0
 31
0.0
  0
LINE
  5
1CE
330
17
100
AcDbEntity
  8
TRACE_MAIN
100
AcDbLine
 10
992.0
 20
866.0
 30
0.0
 11
992.0
 21
901.0
 31
0.0
  0
LINE
  5
1CF
330
17
100
AcDbEntity
  8
TRACE_MAIN
100
AcDbLine
 10
488.0
 20
497.0
 30
0.0
 11
488.0
 21
541.0
 31
0.0
  0
LINE
  5
1D0
330
17
100
AcDbEntity
  8
TRACE_MAIN
100
AcDbLine
 10
488.0
 20
799.0
 30
0.0
 11
488.0
 21
852.0
 31
0.0
  0
LINE
  5
1D1
330
17
100
AcDbEntity
  8
TRACE_MAIN
100
AcDbLine
 10
180.0
 20
134.0
 30
0.0
 11
180.0
 21
234.0
 31
0.0
  0
LINE
  5
1D2
330
17
100
AcDbEntity
  8
TRACE_MAIN
100
AcDbLine
 10
416.0
 20
782.0
 30
0.0
 11
416.0
 21
853.0
 31
0.0
  0
LINE
  5
1D3
330
17
100
AcDbEntity
  8
TRACE_MAIN
100
AcDbLine
 10
1168.0
 20
635.0
 30
0.0
 11
1168.0
 21
667.0
 31
0.0
  0
LINE
  5
1D4
330
17
100
AcDbEntity
  8
TRACE_MAIN
100
AcDbLine
 10
1168.0
 20
888.0
 30
0.0
 11
1168.0
 21
917.0
 31
0.0
  0
LINE
  5
1D5
330
17
100
AcDbEntity
  8
TRACE_MAIN
100
AcDbLine
 10
824.0
 20
77.0
 30
0.0
 11
824.0
 21
106.0
 31
0.0
  0
LINE
  5
1D6
330
17
100
AcDbEntity
  8
TRACE_MAIN
100
AcDbLine
 10
824.0
 20
172.0
 30
0.0
 11
824.0
 21
201.0
 31
0.0
  0
LINE
  5
1D7
330
17
100
AcDbEntity
  8
TRACE_MAIN
100
AcDbLine
 10
824.0
 20
266.0
 30
0.0
 11
824.0
 21
295.0
 31
0.0
  0
LINE
  5
1D8
330
17
100
AcDbEntity
  8
TRACE_MAIN
100
AcDbLine
 10
912.0
 20
479.0
 30
0.0
 11
912.0
 21
509.0
 31
0.0
  0
LINE
  5
1D9
330
17
100
AcDbEntity
  8
TRACE_MAIN
100
AcDbLine
 10
1272.0
 20
283.0
 30
0.0
 11
1272.0
 21
314.0
 31
0.0
  0
LINE
  5
1DA
330
17
100
AcDbEntity
  8
TRACE_MAIN
100
AcDbLine
 10
1272.0
 20
360.0
 30
0.0
 11
1272.0
 21
389.0
 31
0.0
  0
LINE
  5
1DB
330
17
100
AcDbEntity
  8
TRACE_MAIN
100
AcDbLine
 10
420.0
 20
696.0
 30
0.0
 11
420.0
 21
726.0
 31
0.0
  0
LINE
  5
1DC
330
17
100
AcDbEntity
  8
TRACE_MAIN
100
AcDbLine
 10
420.0
 20
820.0
 30
0.0
 11
420.0
 21
861.0
 31
0.0
  0
LINE
  5
1DD
330
17
100
AcDbEntity
  8
TRACE_MAIN
100
AcDbLine
 10
1320.0
 20
385.0
 30
0.0
 11
1320.0
 21
414.0
 31
0.0
  0
LINE
  5
1DE
330
17
100
AcDbEntity
  8
TRACE_MAIN
100
AcDbLine
 10
1004.0
 20
479.0
 30
0.0
 11
1004.0
 21
509.0
 31
0.0
  0
LINE
  5
1DF
330
17
100
AcDbEntity
  8
TRACE_MAIN
100
AcDbLine
 10
1076.0
 20
809.0
 30
0.0
 11
1076.0
 21
843.0
 31
0.0
  0
LINE
  5
1E0
330
17
100
AcDbEntity
  8
TRACE_MAIN
100
AcDbLine
 10
444.0
 20
810.0
 30
0.0
 11
444.0
 21
845.0
 31
0.0
  0
LINE
  5
1E1
330
17
100
AcDbEntity
  8
TRACE_MAIN
100
AcDbLine
 10
428.0
 20
802.0
 30
0.0
 11
428.0
 21
834.0
 31
0.0
  0
LINE
  5
1E2
330
17
100
AcDbEntity
  8
TRACE_MAIN
100
AcDbLine
 10
1032.0
 20
791.0
 30
0.0
 11
1032.0
 21
821.0
 31
0.0
  0
LINE
  5
1E3
330
17
100
AcDbEntity
  8
TRACE_MAIN
100
AcDbLine
 10
540.0
 20
878.0
 30
0.0
 11
540.0
 21
909.0
 31
0.0
  0
LINE
  5
1E4
330
17
100
AcDbEntity
  8
TRACE_MAIN
100
AcDbLine
 10
908.0
 20
266.0
 30
0.0
 11
908.0
 21
295.0
 31
0.0
  0
LINE
  5
1E5
330
17
100
AcDbEntity
  8
TRACE_MAIN
100
AcDbLine
 10
600.0
 20
267.0
 30
0.0
 11
600.0
 21
296.0
 31
0.0
  0
LINE
  5
1E6
330
17
100
AcDbEntity
  8
TRACE_MAIN
100
AcDbLine
 10
424.0
 20
790.0
 30
0.0
 11
424.0
 21
828.0
 31
0.0
  0
LINE
  5
1E7
330
17
100
AcDbEntity
  8
TRACE_MAIN
100
AcDbLine
 10
944.0
 20
691.0
 30
0.0
 11
944.0
 21
732.0
 31
0.0
  0
LINE
  5
1E8
330
17
100
AcDbEntity
  8
TRACE_MAIN
100
AcDbLine
 10
296.0
 20
499.0
 30
0.0
 11
296.0
 21
550.0
 31
0.0
  0
LINE
  5
1E9
330
17
100
AcDbEntity
  8
TRACE_MAIN
100
AcDbLine
 10
1356.0
 20
951.0
 30
0.0
 11
1356.0
 21
986.0
 31
0.0
  0
LINE
  5
1EA
330
17
100
AcDbEntity
  8
TRACE_MAIN
100
AcDbLine
 10
744.0
 20
267.0
 30
0.0
 11
744.0
 21
295.0
 31
0.0
  0
LINE
  5
1EB
330
17
100
AcDbEntity
  8
TRACE_MAIN
100
AcDbLine
 10
988.0
 20
856.0
 30
0.0
 11
988.0
 21
900.0
 31
0.0
  0
LINE
  5
1EC
330
17
100
AcDbEntity
  8
TRACE_MAIN
100
AcDbLine
 10
412.0
 20
804.0
 30
0.0
 11
412.0
 21
837.0
 31
0.0
  0
LINE
  5
1ED
330
17
100
AcDbEntity
  8
TRACE_MAIN
100
AcDbLine
 10
472.0
 20
809.0
 30
0.0
 11
472.0
 21
845.0
 31
0.0
  0
LINE
  5
1EE
330
17
100
AcDbEntity
  8
TRACE_MAIN
100
AcDbLine
 10
364.0
 20
475.0
 30
0.0
 11
364.0
 21
512.0
 31
0.0
  0
LINE
  5
1EF
330
17
100
AcDbEntity
  8
TRACE_MAIN
100
AcDbLine
 10
204.0
 20
379.0
 30
0.0
 11
204.0
 21
409.0
 31
0.0
  0
LINE
  5
1F0
330
17
100
AcDbEntity
  8
TRACE_MAIN
100
AcDbLine
 10
1152.0
 20
806.0
 30
0.0
 11
1152.0
 21
835.0
 31
0.0
  0
LINE
  5
1F1
330
17
100
AcDbEntity
  8
TRACE_MAIN
100
AcDbLine
 10
1292.0
 20
913.0
 30
0.0
 11
1292.0
 21
947.0
 31
0.0
  0
LINE
  5
1F2
330
17
100
AcDbEntity
  8
TRACE_MAIN
100
AcDbLine
 10
975.0
 20
1029.0
 30
0.0
 11
1071.0
 21
1022.0
 31
0.0
  0
LINE
  5
1F3
330
17
100
AcDbEntity
  8
TRACE_MAIN
100
AcDbLine
 10
975.0
 20
1033.0
 30
0.0
 11
1072.0
 21
1026.0
 31
0.0
  0
LINE
  5
1F4
330
17
100
AcDbEntity
  8
TRACE_MAIN
100
AcDbLine
 10
523.0
 20
1075.0
 30
0.0
 11
640.0
 21
1065.0
 31
0.0
  0
LINE
  5
1F5
330
17
100
AcDbEntity
  8
TRACE_MAIN
100
AcDbLine
 10
975.0
 20
1031.0
 30
0.0
 11
1072.0
 21
1024.0
 31
0.0
  0
LINE
  5
1F6
330
17
100
AcDbEntity
  8
TRACE_MAIN
100
AcDbLine
 10
628.0
 20
980.0
 30
0.0
 11
728.0
 21
985.0
 31
0.0
  0
LINE
  5
1F7
330
17
100
AcDbEntity
  8
TRACE_MAIN
100
AcDbLine
 10
351.0
 20
1069.0
 30
0.0
 11
408.0
 21
1065.0
 31
0.0
  0
LINE
  5
1F8
330
17
100
AcDbEntity
  8
TRACE_MAIN
100
AcDbLine
 10
428.0
 20
1074.0
 30
0.0
 11
510.0
 21
1068.0
 31
0.0
  0
LINE
  5
1F9
330
17
100
AcDbEntity
  8
TRACE_MAIN
100
AcDbLine
 10
428.0
 20
1072.0
 30
0.0
 11
511.0
 21
1067.0
 31
0.0
  0
LINE
  5
1FA
330
17
100
AcDbEntity
  8
TRACE_MAIN
100
AcDbLine
 10
1124.0
 20
728.0
 30
0.0
 11
1128.0
 21
635.0
 31
0.0
  0
LINE
  5
1FB
330
17
100
AcDbEntity
  8
TRACE_MAIN
100
AcDbLine
 10
1263.0
 20
869.0
 30
0.0
 11
1327.0
 21
865.0
 31
0.0
  0
LINE
  5
1FC
330
17
100
AcDbEntity
  8
TRACE_MAIN
100
AcDbLine
 10
966.0
 20
932.0
 30
0.0
 11
1013.0
 21
936.0
 31
0.0
  0
LINE
  5
1FD
330
17
100
AcDbEntity
  8
TRACE_MAIN
100
AcDbLine
 10
690.0
 20
981.0
 30
0.0
 11
820.0
 21
985.0
 31
0.0
  0
LINE
  5
1FE
330
17
100
AcDbEntity
  8
TRACE_MAIN
100
AcDbLine
 10
430.0
 20
1077.0
 30
0.0
 11
507.0
 21
1072.0
 31
0.0
  0
LINE
  5
1FF
330
17
100
AcDbEntity
  8
TRACE_MAIN
100
AcDbLine
 10
629.0
 20
979.0
 30
0.0
 11
822.0
 21
975.0
 31
0.0
  0
LINE
  5
200
330
17
100
AcDbEntity
  8
TRACE_MAIN
100
AcDbLine
 10
261.0
 20
869.0
 30
0.0
 11
325.0
 21
875.0
 31
0.0
  0
LINE
  5
201
330
17
100
AcDbEntity
  8
TRACE_MAIN
100
AcDbLine
 10
636.0
 20
905.0
 30
0.0
 11
682.0
 21
909.0
 31
0.0
  0
LINE
  5
202
330
17
100
AcDbEntity
  8
TRACE_MAIN
100
AcDbLine
 10
978.0
 20
847.0
 30
0.0
 11
1163.0
 21
843.0
 31
0.0
  0
LINE
  5
203
330
17
100
AcDbEntity
  8
TRACE_MAIN
100
AcDbLine
 10
587.0
 20
904.0
 30
0.0
 11
677.0
 21
911.0
 31
0.0
  0
LINE
  5
204
330
17
100
AcDbEntity
  8
TRACE_MAIN
100
AcDbLine
 10
260.0
 20
872.0
 30
0.0
 11
323.0
 21
876.0
 31
0.0
  0
LINE
  5
205
330
17
100
AcDbEntity
  8
TRACE_MAIN
100
AcDbLine
 10
820.0
 20
1075.0
 30
0.0
 11
862.0
 21
1069.0
 31
0.0
  0
LINE
  5
206
330
17
100
AcDbEntity
  8
TRACE_MAIN
100
AcDbLine
 10
508.0
 20
977.0
 30
0.0
 11
577.0
 21
981.0
 31
0.0
  0
LINE
  5
207
330
17
100
AcDbEntity
  8
TRACE_MAIN
100
AcDbLine
 10
1278.0
 20
1010.0
 30
0.0
 11
1338.0
 21
1005.0
 31
0.0
  0
LINE
  5
208
330
17
100
AcDbEntity
  8
TRACE_MAIN
100
AcDbLine
 10
1123.0
 20
635.0
 30
0.0
 11
1129.0
 21
699.0
 31
0.0
  0
LINE
  5
209
330
17
100
AcDbEntity
  8
TRACE_MAIN
100
AcDbLine
 10
993.0
 20
1032.0
 30
0.0
 11
1071.0
 21
1028.0
 31
0.0
  0
LINE
  5
20A
330
17
100
AcDbEntity
  8
TRACE_MAIN
100
AcDbLine
 10
419.0
 20
1211.0
 30
0.0
 11
473.0
 21
1207.0
 31
0.0
  0
LINE
  5
20B
330
17
100
AcDbEntity
  8
TRACE_MAIN
100
AcDbLine
 10
832.0
 20
1027.0
 30
0.0
 11
951.0
 21
1023.0
 31
0.0
  0
LINE
  5
20C
330
17
100
AcDbEntity
  8
TRACE_MAIN
100
AcDbLine
 10
217.0
 20
740.0
 30
0.0
 11
262.0
 21
744.0
 31
0.0
  0
LINE
  5
20D
330
17
100
AcDbEntity
  8
TRACE_MAIN
100
AcDbLine
 10
918.0
 20
932.0
 30
0.0
 11
988.0
 21
939.0
 31
0.0
  0
LINE
  5
20E
330
17
100
AcDbEntity
  8
TRACE_MAIN
100
AcDbLine
 10
483.0
 20
1122.0
 30
0.0
 11
561.0
 21
1118.0
 31
0.0
  0
LINE
  5
20F
330
17
100
AcDbEntity
  8
TRACE_MAIN
100
AcDbLine
 10
359.0
 20
755.0
 30
0.0
 11
434.0
 21
759.0
 31
0.0
  0
LINE
  5
210
330
17
100
AcDbEntity
  8
TRACE_MAIN
100
AcDbLine
 10
1263.0
 20
870.0
 30
0.0
 11
1327.0
 21
866.0
 31
0.0
  0
LINE
  5
211
330
17
100
AcDbEntity
  8
TRACE_MAIN
100
AcDbLine
 10
696.0
 20
904.0
 30
0.0
 11
743.0
 21
908.0
 31
0.0
  0
LINE
  5
212
330
17
100
AcDbEntity
  8
TRACE_MAIN
100
AcDbLine
 10
25.0
 20
285.0
 30
0.0
 11
144.0
 21
281.0
 31
0.0
  0
LINE
  5
213
330
17
100
AcDbEntity
  8
TRACE_MAIN
100
AcDbLine
 10
296.0
 20
1124.0
 30
0.0
 11
348.0
 21
1118.0
 31
0.0
  0
LINE
  5
214
330
17
100
AcDbEntity
  8
TRACE_MAIN
100
AcDbLine
 10
380.0
 20
1128.0
 30
0.0
 11
463.0
 21
1117.0
 31
0.0
  0
LINE
  5
215
330
17
100
AcDbEntity
  8
TRACE_MAIN
100
AcDbLine
 10
737.0
 20
105.0
 30
0.0
 11
745.0
 21
77.0
 31
0.0
  0
LINE
  5
216
330
17
100
AcDbEntity
  8
TRACE_MAIN
100
AcDbLine
 10
1106.0
 20
788.0
 30
0.0
 11
1110.0
 21
872.0
 31
0.0
  0
LINE
  5
217
330
17
100
AcDbEntity
  8
TRACE_MAIN
100
AcDbLine
 10
996.0
 20
1160.0
 30
0.0
 11
1066.0
 21
1172.0
 31
0.0
  0
LINE
  5
218
330
17
100
AcDbEntity
  8
TRACE_MAIN
100
AcDbLine
 10
696.0
 20
902.0
 30
0.0
 11
744.0
 21
906.0
 31
0.0
  0
LINE
  5
219
330
17
100
AcDbEntity
  8
TRACE_MAIN
100
AcDbLine
 10
503.0
 20
986.0
 30
0.0
 11
604.0
 21
990.0
 31
0.0
  0
LINE
  5
21A
330
17
100
AcDbEntity
  8
TRACE_MAIN
100
AcDbLine
 10
838.0
 20
1028.0
 30
0.0
 11
962.0
 21
1024.0
 31
0.0
  0
LINE
  5
21B
330
17
100
AcDbEntity
  8
TRACE_MAIN
100
AcDbLine
 10
705.0
 20
285.0
 30
0.0
 11
714.0
 21
257.0
 31
0.0
  0
LINE
  5
21C
330
17
100
AcDbEntity
  8
TRACE_MAIN
100
AcDbLine
 10
1232.0
 20
1013.0
 30
0.0
 11
1265.0
 21
1009.0
 31
0.0
  0
LINE
  5
21D
330
17
100
AcDbEntity
  8
TRACE_MAIN
100
AcDbLine
 10
637.0
 20
903.0
 30
0.0
 11
683.0
 21
908.0
 31
0.0
  0
LINE
  5
21E
330
17
100
AcDbEntity
  8
TRACE_MAIN
100
AcDbLine
 10
1232.0
 20
1012.0
 30
0.0
 11
1265.0
 21
1008.0
 31
0.0
  0
LINE
  5
21F
330
17
100
AcDbEntity
  8
TRACE_MAIN
100
AcDbLine
 10
476.0
 20
876.0
 30
0.0
 11
489.0
 21
842.0
 31
0.0
  0
LINE
  5
220
330
17
100
AcDbEntity
  8
TRACE_MAIN
100
AcDbLine
 10
469.0
 20
811.0
 30
0.0
 11
534.0
 21
815.0
 31
0.0
  0
LINE
  5
221
330
17
100
AcDbEntity
  8
TRACE_MAIN
100
AcDbLine
 10
691.0
 20
979.0
 30
0.0
 11
820.0
 21
984.0
 31
0.0
  0
LINE
  5
222
330
17
100
AcDbEntity
  8
TRACE_MAIN
100
AcDbLine
 10
638.0
 20
901.0
 30
0.0
 11
684.0
 21
905.0
 31
0.0
  0
LINE
  5
223
330
17
100
AcDbEntity
  8
TRACE_MAIN
100
AcDbLine
 10
1097.0
 20
491.0
 30
0.0
 11
1162.0
 21
495.0
 31
0.0
  0
LINE
  5
224
330
17
100
AcDbEntity
  8
TRACE_MAIN
100
AcDbLine
 10
157.0
 20
737.0
 30
0.0
 11
204.0
 21
742.0
 31
0.0
  0
LINE
  5
225
330
17
100
AcDbEntity
  8
TRACE_MAIN
100
AcDbLine
 10
686.0
 20
287.0
 30
0.0
 11
695.0
 21
250.0
 31
0.0
  0
LINE
  5
226
330
17
100
AcDbEntity
  8
TRACE_MAIN
100
AcDbLine
 10
516.0
 20
825.0
 30
0.0
 11
528.0
 21
786.0
 31
0.0
  0
LINE
  5
227
330
17
100
AcDbEntity
  8
TRACE_MAIN
100
AcDbLine
 10
24.0
 20
287.0
 30
0.0
 11
144.0
 21
282.0
 31
0.0
  0
LINE
  5
228
330
17
100
AcDbEntity
  8
TRACE_MAIN
100
AcDbLine
 10
396.0
 20
1125.0
 30
0.0
 11
467.0
 21
1129.0
 31
0.0
  0
LINE
  5
229
330
17
100
AcDbEntity
  8
TRACE_MAIN
100
AcDbLine
 10
517.0
 20
819.0
 30
0.0
 11
528.0
 21
780.0
 31
0.0
  0
LINE
  5
22A
330
17
100
AcDbEntity
  8
TRACE_MAIN
100
AcDbLine
 10
908.0
 20
480.0
 30
0.0
 11
991.0
 21
484.0
 31
0.0
  0
LINE
  5
22B
330
17
100
AcDbEntity
  8
TRACE_MAIN
100
AcDbLine
 10
933.0
 20
667.0
 30
0.0
 11
938.0
 21
636.0
 31
0.0
  0
LINE
  5
22C
330
17
100
AcDbEntity
  8
TRACE_MAIN
100
AcDbLine
 10
1009.0
 20
874.0
 30
0.0
 11
1034.0
 21
840.0
 31
0.0
  0
LINE
  5
22D
330
17
100
AcDbEntity
  8
TRACE_MAIN
100
AcDbLine
 10
916.0
 20
937.0
 30
0.0
 11
1008.0
 21
933.0
 31
0.0
  0
LINE
  5
22E
330
17
100
AcDbEntity
  8
TRACE_MAIN
100
AcDbLine
 10
550.0
 20
1173.0
 30
0.0
 11
699.0
 21
1168.0
 31
0.0
  0
LINE
  5
22F
330
17
100
AcDbEntity
  8
TRACE_MAIN
100
AcDbLine
 10
524.0
 20
1068.0
 30
0.0
 11
600.0
 21
1074.0
 31
0.0
  0
LINE
  5
230
330
17
100
AcDbEntity
  8
TRACE_MAIN
100
AcDbLine
 10
500.0
 20
824.0
 30
0.0
 11
515.0
 21
785.0
 31
0.0
  0
LINE
  5
231
330
17
100
AcDbEntity
  8
TRACE_MAIN
100
AcDbLine
 10
580.0
 20
617.0
 30
0.0
 11
590.0
 21
588.0
 31
0.0
  0
LINE
  5
232
330
17
100
AcDbEntity
  8
TRACE_MAIN
100
AcDbLine
 10
1008.0
 20
801.0
 30
0.0
 11
1032.0
 21
855.0
 31
0.0
  0
LINE
  5
233
330
17
100
AcDbEntity
  8
TRACE_MAIN
100
AcDbLine
 10
504.0
 20
984.0
 30
0.0
 11
595.0
 21
988.0
 31
0.0
  0
LINE
  5
234
330
17
100
AcDbEntity
  8
TRACE_MAIN
100
AcDbLine
 10
588.0
 20
717.0
 30
0.0
 11
598.0
 21
656.0
 31
0.0
  0
LINE
  5
235
330
17
100
AcDbEntity
  8
TRACE_MAIN
100
AcDbLine
 10
426.0
 20
1211.0
 30
0.0
 11
561.0
 21
1207.0
 31
0.0
  0
LINE
  5
236
330
17
100
AcDbEntity
  8
TRACE_MAIN
100
AcDbLine
 10
732.0
 20
257.0
 30
0.0
 11
749.0
 21
288.0
 31
0.0
  0
LINE
  5
237
330
17
100
AcDbEntity
  8
TRACE_MAIN
100
AcDbLine
 10
735.0
 20
69.0
 30
0.0
 11
748.0
 21
104.0
 31
0.0
  0
LINE
  5
238
330
17
100
AcDbEntity
  8
TRACE_MAIN
100
AcDbLine
 10
531.0
 20
812.0
 30
0.0
 11
535.0
 21
855.0
 31
0.0
  0
LINE
  5
239
330
17
100
AcDbEntity
  8
TRACE_MAIN
100
AcDbLine
 10
688.0
 20
986.0
 30
0.0
 11
749.0
 21
982.0
 31
0.0
  0
LINE
  5
23A
330
17
100
AcDbEntity
  8
TRACE_MAIN
100
AcDbLine
 10
1003.0
 20
484.0
 30
0.0
 11
1040.0
 21
468.0
 31
0.0
  0
LINE
  5
23B
330
17
100
AcDbEntity
  8
TRACE_MAIN
100
AcDbLine
 10
736.0
 20
166.0
 30
0.0
 11
749.0
 21
197.0
 31
0.0
  0
LINE
  5
23C
330
17
100
AcDbEntity
  8
TRACE_MAIN
100
AcDbLine
 10
1087.0
 20
105.0
 30
0.0
 11
1095.0
 21
77.0
 31
0.0
  0
LINE
  5
23D
330
17
100
AcDbEntity
  8
TRACE_MAIN
100
AcDbLine
 10
553.0
 20
662.0
 30
0.0
 11
601.0
 21
642.0
 31
0.0
  0
LINE
  5
23E
330
17
100
AcDbEntity
  8
TRACE_MAIN
100
AcDbLine
 10
1007.0
 20
789.0
 30
0.0
 11
1035.0
 21
852.0
 31
0.0
  0
LINE
  5
23F
330
17
100
AcDbEntity
  8
TRACE_MAIN
100
AcDbLine
 10
339.0
 20
1065.0
 30
0.0
 11
400.0
 21
1069.0
 31
0.0
  0
LINE
  5
240
330
17
100
AcDbEntity
  8
TRACE_MAIN
100
AcDbLine
 10
696.0
 20
905.0
 30
0.0
 11
739.0
 21
911.0
 31
0.0
  0
LINE
  5
241
330
17
100
AcDbEntity
  8
TRACE_MAIN
100
AcDbLine
 10
933.0
 20
636.0
 30
0.0
 11
943.0
 21
668.0
 31
0.0
  0
LINE
  5
242
330
17
100
AcDbEntity
  8
TRACE_MAIN
100
AcDbLine
 10
364.0
 20
1173.0
 30
0.0
 11
419.0
 21
1163.0
 31
0.0
  0
LINE
  5
243
330
17
100
AcDbEntity
  8
TRACE_MAIN
100
AcDbLine
 10
407.0
 20
816.0
 30
0.0
 11
414.0
 21
783.0
 31
0.0
  0
LINE
  5
244
330
17
100
AcDbEntity
  8
TRACE_MAIN
100
AcDbLine
 10
475.0
 20
876.0
 30
0.0
 11
487.0
 21
843.0
 31
0.0
  0
LINE
  5
245
330
17
100
AcDbEntity
  8
TRACE_MAIN
100
AcDbLine
 10
1031.0
 20
1035.0
 30
0.0
 11
1070.0
 21
1030.0
 31
0.0
  0
LINE
  5
246
330
17
100
AcDbEntity
  8
TRACE_MAIN
100
AcDbLine
 10
1010.0
 20
800.0
 30
0.0
 11
1033.0
 21
854.0
 31
0.0
  0
LINE
  5
247
330
17
100
AcDbEntity
  8
TRACE_MAIN
100
AcDbLine
 10
237.0
 20
311.0
 30
0.0
 11
253.0
 21
340.0
 31
0.0
  0
LINE
  5
248
330
17
100
AcDbEntity
  8
TRACE_MAIN
100
AcDbLine
 10
1025.0
 20
932.0
 30
0.0
 11
1072.0
 21
938.0
 31
0.0
  0
LINE
  5
249
330
17
100
AcDbEntity
  8
TRACE_MAIN
100
AcDbLine
 10
936.0
 20
679.0
 30
0.0
 11
954.0
 21
724.0
 31
0.0
  0
LINE
  5
24A
330
17
100
AcDbEntity
  8
TRACE_MAIN
100
AcDbLine
 10
1083.0
 20
1030.0
 30
0.0
 11
1129.0
 21
1025.0
 31
0.0
  0
LINE
  5
24B
330
17
100
AcDbEntity
  8
TRACE_MAIN
100
AcDbLine
 10
231.0
 20
1170.0
 30
0.0
 11
260.0
 21
1158.0
 31
0.0
  0
LINE
  5
24C
330
17
100
AcDbEntity
  8
TRACE_MAIN
100
AcDbLine
 10
108.0
 20
744.0
 30
0.0
 11
205.0
 21
739.0
 31
0.0
  0
LINE
  5
24D
330
17
100
AcDbEntity
  8
TRACE_MAIN
100
AcDbLine
 10
290.0
 20
1123.0
 30
0.0
 11
348.0
 21
1117.0
 31
0.0
  0
LINE
  5
24E
330
17
100
AcDbEntity
  8
TRACE_MAIN
100
AcDbLine
 10
480.0
 20
805.0
 30
0.0
 11
543.0
 21
814.0
 31
0.0
  0
LINE
  5
24F
330
17
100
AcDbEntity
  8
TRACE_MAIN
100
AcDbLine
 10
474.0
 20
842.0
 30
0.0
 11
498.0
 21
781.0
 31
0.0
  0
LINE
  5
250
330
17
100
AcDbEntity
  8
TRACE_MAIN
100
AcDbLine
 10
493.0
 20
876.0
 30
0.0
 11
513.0
 21
816.0
 31
0.0
  0
LINE
  5
251
330
17
100
AcDbEntity
  8
TRACE_MAIN
100
AcDbLine
 10
912.0
 20
481.0
 30
0.0
 11
967.0
 21
485.0
 31
0.0
  0
LINE
  5
252
330
17
100
AcDbEntity
  8
TRACE_MAIN
100
AcDbLine
 10
1068.0
 20
438.0
 30
0.0
 11
1099.0
 21
434.0
 31
0.0
  0
LINE
  5
253
330
17
100
AcDbEntity
  8
TRACE_MAIN
100
AcDbLine
 10
678.0
 20
69.0
 30
0.0
 11
691.0
 21
100.0
 31
0.0
  0
LINE
  5
254
330
17
100
AcDbEntity
  8
TRACE_MAIN
100
AcDbLine
 10
945.0
 20
613.0
 30
0.0
 11
951.0
 21
582.0
 31
0.0
  0
LINE
  5
255
330
17
100
AcDbEntity
  8
TRACE_MAIN
100
AcDbLine
 10
1018.0
 20
473.0
 30
0.0
 11
1044.0
 21
510.0
 31
0.0
  0
LINE
  5
256
330
17
100
AcDbEntity
  8
TRACE_MAIN
100
AcDbLine
 10
501.0
 20
814.0
 30
0.0
 11
514.0
 21
779.0
 31
0.0
  0
LINE
  5
257
330
17
100
AcDbEntity
  8
TRACE_MAIN
100
AcDbLine
 10
686.0
 20
193.0
 30
0.0
 11
695.0
 21
154.0
 31
0.0
  0
LINE
  5
258
330
17
100
AcDbEntity
  8
TRACE_MAIN
100
AcDbLine
 10
628.0
 20
981.0
 30
0.0
 11
676.0
 21
986.0
 31
0.0
  0
LINE
  5
259
330
17
100
AcDbEntity
  8
TRACE_MAIN
100
AcDbLine
 10
1125.0
 20
676.0
 30
0.0
 11
1144.0
 21
728.0
 31
0.0
  0
LINE
  5
25A
330
17
100
AcDbEntity
  8
TRACE_MAIN
100
AcDbLine
 10
1279.0
 20
902.0
 30
0.0
 11
1312.0
 21
933.0
 31
0.0
  0
LINE
  5
25B
330
17
100
AcDbEntity
  8
TRACE_MAIN
100
AcDbLine
 10
960.0
 20
500.0
 30
0.0
 11
989.0
 21
488.0
 31
0.0
  0
LINE
  5
25C
330
17
100
AcDbEntity
  8
TRACE_MAIN
100
AcDbLine
 10
575.0
 20
625.0
 30
0.0
 11
590.0
 21
585.0
 31
0.0
  0
LINE
  5
25D
330
17
100
AcDbEntity
  8
TRACE_MAIN
100
AcDbLine
 10
1027.0
 20
824.0
 30
0.0
 11
1046.0
 21
873.0
 31
0.0
  0
LINE
  5
25E
330
17
100
AcDbEntity
  8
TRACE_MAIN
100
AcDbLine
 10
572.0
 20
625.0
 30
0.0
 11
587.0
 21
583.0
 31
0.0
  0
LINE
  5
25F
330
17
100
AcDbEntity
  8
TRACE_MAIN
100
AcDbLine
 10
506.0
 20
859.0
 30
0.0
 11
519.0
 21
820.0
 31
0.0
  0
LINE
  5
260
330
17
100
AcDbEntity
  8
TRACE_MAIN
100
AcDbLine
 10
589.0
 20
669.0
 30
0.0
 11
601.0
 21
637.0
 31
0.0
  0
LINE
  5
261
330
17
100
AcDbEntity
  8
TRACE_MAIN
100
AcDbLine
 10
719.0
 20
978.0
 30
0.0
 11
820.0
 21
983.0
 31
0.0
  0
LINE
  5
262
330
17
100
AcDbEntity
  8
TRACE_MAIN
100
AcDbLine
 10
1265.0
 20
352.0
 30
0.0
 11
1319.0
 21
345.0
 31
0.0
  0
LINE
  5
263
330
17
100
AcDbEntity
  8
TRACE_MAIN
100
AcDbLine
 10
627.0
 20
983.0
 30
0.0
 11
675.0
 21
988.0
 31
0.0
  0
LINE
  5
264
330
17
100
AcDbEntity
  8
TRACE_MAIN
100
AcDbLine
 10
684.0
 20
285.0
 30
0.0
 11
694.0
 21
251.0
 31
0.0
  0
LINE
  5
265
330
17
100
AcDbEntity
  8
TRACE_MAIN
100
AcDbLine
 10
703.0
 20
287.0
 30
0.0
 11
713.0
 21
259.0
 31
0.0
  0
LINE
  5
266
330
17
100
AcDbEntity
  8
TRACE_MAIN
100
AcDbLine
 10
494.0
 20
876.0
 30
0.0
 11
506.0
 21
842.0
 31
0.0
  0
LINE
  5
267
330
17
100
AcDbEntity
  8
TRACE_MAIN
100
AcDbLine
 10
704.0
 20
192.0
 30
0.0
 11
714.0
 21
164.0
 31
0.0
  0
LINE
  5
268
330
17
100
AcDbEntity
  8
TRACE_MAIN
100
AcDbLine
 10
531.0
 20
799.0
 30
0.0
 11
536.0
 21
851.0
 31
0.0
  0
LINE
  5
269
330
17
100
AcDbEntity
  8
TRACE_MAIN
100
AcDbLine
 10
1033.0
 20
803.0
 30
0.0
 11
1050.0
 21
846.0
 31
0.0
  0
LINE
  5
26A
330
17
100
AcDbEntity
  8
TRACE_MAIN
100
AcDbLine
 10
462.0
 20
1078.0
 30
0.0
 11
491.0
 21
1065.0
 31
0.0
  0
LINE
  5
26B
330
17
100
AcDbEntity
  8
TRACE_MAIN
100
AcDbLine
 10
910.0
 20
732.0
 30
0.0
 11
955.0
 21
690.0
 31
0.0
  0
LINE
  5
26C
330
17
100
AcDbEntity
  8
TRACE_MAIN
100
AcDbLine
 10
1085.0
 20
848.0
 30
0.0
 11
1166.0
 21
858.0
 31
0.0
  0
LINE
  5
26D
330
17
100
AcDbEntity
  8
TRACE_MAIN
100
AcDbLine
 10
1128.0
 20
734.0
 30
0.0
 11
1147.0
 21
763.0
 31
0.0
  0
LINE
  5
26E
330
17
100
AcDbEntity
  8
TRACE_MAIN
100
AcDbLine
 10
1017.0
 20
834.0
 30
0.0
 11
1035.0
 21
870.0
 31
0.0
  0
LINE
  5
26F
330
17
100
AcDbEntity
  8
TRACE_MAIN
100
AcDbLine
 10
993.0
 20
1160.0
 30
0.0
 11
1070.0
 21
1164.0
 31
0.0
  0
LINE
  5
270
330
17
100
AcDbEntity
  8
TRACE_MAIN
100
AcDbLine
 10
740.0
 20
106.0
 30
0.0
 11
746.0
 21
78.0
 31
0.0
  0
LINE
  5
271
330
17
100
AcDbEntity
  8
TRACE_MAIN
100
AcDbLine
 10
833.0
 20
1162.0
 30
0.0
 11
911.0
 21
1166.0
 31
0.0
  0
LINE
  5
272
330
17
100
AcDbEntity
  8
TRACE_MAIN
100
AcDbLine
 10
469.0
 20
820.0
 30
0.0
 11
510.0
 21
801.0
 31
0.0
  0
LINE
  5
273
330
17
100
AcDbEntity
  8
TRACE_MAIN
100
AcDbLine
 10
323.0
 20
1169.0
 30
0.0
 11
403.0
 21
1165.0
 31
0.0
  0
LINE
  5
274
330
17
100
AcDbEntity
  8
TRACE_MAIN
100
AcDbLine
 10
959.0
 20
1160.0
 30
0.0
 11
1021.0
 21
1165.0
 31
0.0
  0
LINE
  5
275
330
17
100
AcDbEntity
  8
TRACE_MAIN
100
AcDbLine
 10
1093.0
 20
508.0
 30
0.0
 11
1135.0
 21
475.0
 31
0.0
  0
LINE
  5
276
330
17
100
AcDbEntity
  8
TRACE_MAIN
100
AcDbLine
 10
945.0
 20
584.0
 30
0.0
 11
961.0
 21
622.0
 31
0.0
  0
LINE
  5
277
330
17
100
AcDbEntity
  8
TRACE_MAIN
100
AcDbLine
 10
1100.0
 20
745.0
 30
0.0
 11
1129.0
 21
770.0
 31
0.0
  0
LINE
  5
278
330
17
100
AcDbEntity
  8
TRACE_MAIN
100
AcDbLine
 10
391.0
 20
729.0
 30
0.0
 11
445.0
 21
707.0
 31
0.0
  0
LINE
  5
279
330
17
100
AcDbEntity
  8
TRACE_MAIN
100
AcDbLine
 10
492.0
 20
815.0
 30
0.0
 11
528.0
 21
800.0
 31
0.0
  0
LINE
  5
27A
330
17
100
AcDbEntity
  8
TRACE_MAIN
100
AcDbLine
 10
1006.0
 20
482.0
 30
0.0
 11
1068.0
 21
452.0
 31
0.0
  0
LINE
  5
27B
330
17
100
AcDbEntity
  8
TRACE_MAIN
100
AcDbLine
 10
678.0
 20
165.0
 30
0.0
 11
693.0
 21
195.0
 31
0.0
  0
LINE
  5
27C
330
17
100
AcDbEntity
  8
TRACE_MAIN
100
AcDbLine
 10
1016.0
 20
780.0
 30
0.0
 11
1029.0
 21
811.0
 31
0.0
  0
LINE
  5
27D
330
17
100
AcDbEntity
  8
TRACE_MAIN
100
AcDbLine
 10
931.0
 20
615.0
 30
0.0
 11
937.0
 21
581.0
 31
0.0
  0
LINE
  5
27E
330
17
100
AcDbEntity
  8
TRACE_MAIN
100
AcDbLine
 10
523.0
 20
1073.0
 30
0.0
 11
609.0
 21
1067.0
 31
0.0
  0
LINE
  5
27F
330
17
100
AcDbEntity
  8
TRACE_MAIN
100
AcDbLine
 10
935.0
 20
614.0
 30
0.0
 11
940.0
 21
580.0
 31
0.0
  0
LINE
  5
280
330
17
100
AcDbEntity
  8
TRACE_MAIN
100
AcDbLine
 10
774.0
 20
983.0
 30
0.0
 11
822.0
 21
979.0
 31
0.0
  0
LINE
  5
281
330
17
100
AcDbEntity
  8
TRACE_MAIN
100
AcDbLine
 10
416.0
 20
772.0
 30
0.0
 11
432.0
 21
696.0
 31
0.0
  0
LINE
  5
282
330
17
100
AcDbEntity
  8
TRACE_MAIN
100
AcDbLine
 10
1100.0
 20
747.0
 30
0.0
 11
1128.0
 21
770.0
 31
0.0
  0
LINE
  5
283
330
17
100
AcDbEntity
  8
TRACE_MAIN
100
AcDbLine
 10
964.0
 20
476.0
 30
0.0
 11
972.0
 21
513.0
 31
0.0
  0
LINE
  5
284
330
17
100
AcDbEntity
  8
TRACE_MAIN
100
AcDbLine
 10
1008.0
 20
789.0
 30
0.0
 11
1035.0
 21
850.0
 31
0.0
  0
LINE
  5
285
330
17
100
AcDbEntity
  8
TRACE_MAIN
100
AcDbLine
 10
248.0
 20
324.0
 30
0.0
 11
283.0
 21
317.0
 31
0.0
  0
LINE
  5
286
330
17
100
AcDbEntity
  8
TRACE_MAIN
100
AcDbLine
 10
349.0
 20
874.0
 30
0.0
 11
401.0
 21
850.0
 31
0.0
  0
LINE
  5
287
330
17
100
AcDbEntity
  8
TRACE_MAIN
100
AcDbLine
 10
670.0
 20
975.0
 30
0.0
 11
702.0
 21
979.0
 31
0.0
  0
LINE
  5
288
330
17
100
AcDbEntity
  8
TRACE_MAIN
100
AcDbLine
 10
919.0
 20
732.0
 30
0.0
 11
924.0
 21
695.0
 31
0.0
  0
LINE
  5
289
330
17
100
AcDbEntity
  8
TRACE_MAIN
100
AcDbLine
 10
570.0
 20
625.0
 30
0.0
 11
582.0
 21
595.0
 31
0.0
  0
LINE
  5
28A
330
17
100
AcDbEntity
  8
TRACE_MAIN
100
AcDbLine
 10
515.0
 20
504.0
 30
0.0
 11
537.0
 21
475.0
 31
0.0
  0
LINE
  5
28B
330
17
100
AcDbEntity
  8
TRACE_MAIN
100
AcDbLine
 10
1037.0
 20
852.0
 30
0.0
 11
1052.0
 21
821.0
 31
0.0
  0
LINE
  5
28C
330
17
100
AcDbEntity
  8
TRACE_MAIN
100
AcDbLine
 10
479.0
 20
838.0
 30
0.0
 11
496.0
 21
780.0
 31
0.0
  0
LINE
  5
28D
330
17
100
AcDbEntity
  8
TRACE_MAIN
100
AcDbLine
 10
134.0
 20
737.0
 30
0.0
 11
171.0
 21
745.0
 31
0.0
  0
LINE
  5
28E
330
17
100
AcDbEntity
  8
TRACE_MAIN
100
AcDbLine
 10
591.0
 20
668.0
 30
0.0
 11
597.0
 21
636.0
 31
0.0
  0
LINE
  5
28F
330
17
100
AcDbEntity
  8
TRACE_MAIN
100
AcDbLine
 10
696.0
 20
903.0
 30
0.0
 11
741.0
 21
910.0
 31
0.0
  0
LINE
  5
290
330
17
100
AcDbEntity
  8
TRACE_MAIN
100
AcDbLine
 10
492.0
 20
838.0
 30
0.0
 11
562.0
 21
880.0
 31
0.0
  0
LINE
  5
291
330
17
100
AcDbEntity
  8
TRACE_MAIN
100
AcDbLine
 10
936.0
 20
681.0
 30
0.0
 11
953.0
 21
724.0
 31
0.0
  0
LINE
  5
292
330
17
100
AcDbEntity
  8
TRACE_MAIN
100
AcDbLine
 10
1155.0
 20
512.0
 30
0.0
 11
1159.0
 21
474.0
 31
0.0
  0
LINE
  5
293
330
17
100
AcDbEntity
  8
TRACE_MAIN
100
AcDbLine
 10
525.0
 20
976.0
 30
0.0
 11
606.0
 21
980.0
 31
0.0
  0
LINE
  5
294
330
17
100
AcDbEntity
  8
TRACE_MAIN
100
AcDbLine
 10
521.0
 20
505.0
 30
0.0
 11
541.0
 21
476.0
 31
0.0
  0
LINE
  5
295
330
17
100
AcDbEntity
  8
TRACE_MAIN
100
AcDbLine
 10
674.0
 20
68.0
 30
0.0
 11
694.0
 21
100.0
 31
0.0
  0
LINE
  5
296
330
17
100
AcDbEntity
  8
TRACE_MAIN
100
AcDbLine
 10
992.0
 20
493.0
 30
0.0
 11
1068.0
 21
463.0
 31
0.0
  0
LINE
  5
297
330
17
100
AcDbEntity
  8
TRACE_MAIN
100
AcDbLine
 10
679.0
 20
164.0
 30
0.0
 11
695.0
 21
195.0
 31
0.0
  0
LINE
  5
298
330
17
100
AcDbEntity
  8
TRACE_MAIN
100
AcDbLine
 10
909.0
 20
732.0
 30
0.0
 11
916.0
 21
694.0
 31
0.0
  0
LINE
  5
299
330
17
100
AcDbEntity
  8
TRACE_MAIN
100
AcDbLine
 10
1095.0
 20
722.0
 30
0.0
 11
1114.0
 21
754.0
 31
0.0
  0
LINE
  5
29A
330
17
100
AcDbEntity
  8
TRACE_MAIN
100
AcDbLine
 10
586.0
 20
910.0
 30
0.0
 11
627.0
 21
906.0
 31
0.0
  0
LINE
  5
29B
330
17
100
AcDbEntity
  8
TRACE_MAIN
100
AcDbLine
 10
920.0
 20
732.0
 30
0.0
 11
926.0
 21
694.0
 31
0.0
  0
LINE
  5
29C
330
17
100
AcDbEntity
  8
TRACE_MAIN
100
AcDbLine
 10
641.0
 20
173.0
 30
0.0
 11
669.0
 21
180.0
 31
0.0
  0
LINE
  5
29D
330
17
100
AcDbEntity
  8
TRACE_MAIN
100
AcDbLine
 10
1285.0
 20
914.0
 30
0.0
 11
1305.0
 21
942.0
 31
0.0
  0
LINE
  5
29E
330
17
100
AcDbEntity
  8
TRACE_MAIN
100
AcDbLine
 10
465.0
 20
527.0
 30
0.0
 11
486.0
 21
489.0
 31
0.0
  0
LINE
  5
29F
330
17
100
AcDbEntity
  8
TRACE_MAIN
100
AcDbLine
 10
939.0
 20
694.0
 30
0.0
 11
953.0
 21
730.0
 31
0.0
  0
LINE
  5
2A0
330
17
100
AcDbEntity
  8
TRACE_MAIN
100
AcDbLine
 10
492.0
 20
850.0
 30
0.0
 11
535.0
 21
799.0
 31
0.0
  0
LINE
  5
2A1
330
17
100
AcDbEntity
  8
TRACE_MAIN
100
AcDbLine
 10
576.0
 20
730.0
 30
0.0
 11
591.0
 21
702.0
 31
0.0
  0
LINE
  5
2A2
330
17
100
AcDbEntity
  8
TRACE_MAIN
100
AcDbLine
 10
1231.0
 20
1016.0
 30
0.0
 11
1264.0
 21
1012.0
 31
0.0
  0
LINE
  5
2A3
330
17
100
AcDbEntity
  8
TRACE_MAIN
100
AcDbLine
 10
736.0
 20
168.0
 30
0.0
 11
748.0
 21
198.0
 31
0.0
  0
LINE
  5
2A4
330
17
100
AcDbEntity
  8
TRACE_MAIN
100
AcDbLine
 10
1029.0
 20
824.0
 30
0.0
 11
1039.0
 21
852.0
 31
0.0
  0
LINE
  5
2A5
330
17
100
AcDbEntity
  8
TRACE_MAIN
100
AcDbLine
 10
680.0
 20
68.0
 30
0.0
 11
696.0
 21
99.0
 31
0.0
  0
LINE
  5
2A6
330
17
100
AcDbEntity
  8
TRACE_MAIN
100
AcDbLine
 10
352.0
 20
1207.0
 30
0.0
 11
396.0
 21
1218.0
 31
0.0
  0
LINE
  5
2A7
330
17
100
AcDbEntity
  8
TRACE_MAIN
100
AcDbLine
 10
233.0
 20
324.0
 30
0.0
 11
282.0
 21
319.0
 31
0.0
  0
LINE
  5
2A8
330
17
100
AcDbEntity
  8
TRACE_MAIN
100
AcDbLine
 10
422.0
 20
759.0
 30
0.0
 11
438.0
 21
722.0
 31
0.0
  0
LINE
  5
2A9
330
17
100
AcDbEntity
  8
TRACE_MAIN
100
AcDbLine
 10
494.0
 20
856.0
 30
0.0
 11
500.0
 21
822.0
 31
0.0
  0
LINE
  5
2AA
330
17
100
AcDbEntity
  8
TRACE_MAIN
100
AcDbLine
 10
322.0
 20
480.0
 30
0.0
 11
350.0
 21
486.0
 31
0.0
  0
LINE
  5
2AB
330
17
100
AcDbEntity
  8
TRACE_MAIN
100
AcDbLine
 10
725.0
 20
975.0
 30
0.0
 11
821.0
 21
981.0
 31
0.0
  0
LINE
  5
2AC
330
17
100
AcDbEntity
  8
TRACE_MAIN
100
AcDbLine
 10
333.0
 20
1168.0
 30
0.0
 11
363.0
 21
1163.0
 31
0.0
  0
LINE
  5
2AD
330
17
100
AcDbEntity
  8
TRACE_MAIN
100
AcDbLine
 10
653.0
 20
974.0
 30
0.0
 11
708.0
 21
991.0
 31
0.0
  0
LINE
  5
2AE
330
17
100
AcDbEntity
  8
TRACE_MAIN
100
AcDbLine
 10
477.0
 20
876.0
 30
0.0
 11
498.0
 21
824.0
 31
0.0
  0
LINE
  5
2AF
330
17
100
AcDbEntity
  8
TRACE_MAIN
100
AcDbLine
 10
1013.0
 20
797.0
 30
0.0
 11
1035.0
 21
847.0
 31
0.0
  0
LINE
  5
2B0
330
17
100
AcDbEntity
  8
TRACE_MAIN
100
AcDbLine
 10
600.0
 20
296.0
 30
0.0
 11
606.0
 21
268.0
 31
0.0
  0
LINE
  5
2B1
330
17
100
AcDbEntity
  8
TRACE_MAIN
100
AcDbLine
 10
1232.0
 20
389.0
 30
0.0
 11
1245.0
 21
360.0
 31
0.0
  0
LINE
  5
2B2
330
17
100
AcDbEntity
  8
TRACE_MAIN
100
AcDbLine
 10
919.0
 20
1029.0
 30
0.0
 11
962.0
 21
1025.0
 31
0.0
  0
LINE
  5
2B3
330
17
100
AcDbEntity
  8
TRACE_MAIN
100
AcDbLine
 10
470.0
 20
845.0
 30
0.0
 11
493.0
 21
808.0
 31
0.0
  0
LINE
  5
2B4
330
17
100
AcDbEntity
  8
TRACE_MAIN
100
AcDbLine
 10
1004.0
 20
821.0
 30
0.0
 11
1019.0
 21
858.0
 31
0.0
  0
LINE
  5
2B5
330
17
100
AcDbEntity
  8
TRACE_MAIN
100
AcDbLine
 10
503.0
 20
812.0
 30
0.0
 11
514.0
 21
780.0
 31
0.0
  0
LINE
  5
2B6
330
17
100
AcDbEntity
  8
TRACE_MAIN
100
AcDbLine
 10
590.0
 20
669.0
 30
0.0
 11
602.0
 21
638.0
 31
0.0
  0
LINE
  5
2B7
330
17
100
AcDbEntity
  8
TRACE_MAIN
100
AcDbLine
 10
948.0
 20
514.0
 30
0.0
 11
955.0
 21
474.0
 31
0.0
  0
LINE
  5
2B8
330
17
100
AcDbEntity
  8
TRACE_MAIN
100
AcDbLine
 10
920.0
 20
519.0
 30
0.0
 11
948.0
 21
508.0
 31
0.0
  0
LINE
  5
2B9
330
17
100
AcDbEntity
  8
TRACE_MAIN
100
AcDbLine
 10
457.0
 20
342.0
 30
0.0
 11
486.0
 21
335.0
 31
0.0
  0
LINE
  5
2BA
330
17
100
AcDbEntity
  8
TRACE_MAIN
100
AcDbLine
 10
819.0
 20
1122.0
 30
0.0
 11
855.0
 21
1129.0
 31
0.0
  0
LINE
  5
2BB
330
17
100
AcDbEntity
  8
TRACE_MAIN
100
AcDbLine
 10
1011.0
 20
800.0
 30
0.0
 11
1034.0
 21
852.0
 31
0.0
  0
LINE
  5
2BC
330
17
100
AcDbEntity
  8
TRACE_MAIN
100
AcDbLine
 10
932.0
 20
615.0
 30
0.0
 11
938.0
 21
580.0
 31
0.0
  0
LINE
  5
2BD
330
17
100
AcDbEntity
  8
TRACE_MAIN
100
AcDbLine
 10
1139.0
 20
741.0
 30
0.0
 11
1151.0
 21
712.0
 31
0.0
  0
LINE
  5
2BE
330
17
100
AcDbEntity
  8
TRACE_MAIN
100
AcDbLine
 10
1017.0
 20
780.0
 30
0.0
 11
1040.0
 21
823.0
 31
0.0
  0
LINE
  5
2BF
330
17
100
AcDbEntity
  8
TRACE_MAIN
100
AcDbLine
 10
1132.0
 20
723.0
 30
0.0
 11
1136.0
 21
689.0
 31
0.0
  0
LINE
  5
2C0
330
17
100
AcDbEntity
  8
TRACE_MAIN
100
AcDbLine
 10
627.0
 20
984.0
 30
0.0
 11
671.0
 21
992.0
 31
0.0
  0
LINE
  5
2C1
330
17
100
AcDbEntity
  8
TRACE_MAIN
100
AcDbLine
 10
1014.0
 20
837.0
 30
0.0
 11
1029.0
 21
872.0
 31
0.0
  0
LINE
  5
2C2
330
17
100
AcDbEntity
  8
TRACE_MAIN
100
AcDbLine
 10
1271.0
 20
893.0
 30
0.0
 11
1300.0
 21
918.0
 31
0.0
  0
LINE
  5
2C3
330
17
100
AcDbEntity
  8
TRACE_MAIN
100
AcDbLine
 10
1016.0
 20
841.0
 30
0.0
 11
1028.0
 21
869.0
 31
0.0
  0
LINE
  5
2C4
330
17
100
AcDbEntity
  8
TRACE_MAIN
100
AcDbLine
 10
838.0
 20
1069.0
 30
0.0
 11
866.0
 21
1084.0
 31
0.0
  0
LINE
  5
2C5
330
17
100
AcDbEntity
  8
TRACE_MAIN
100
AcDbLine
 10
1055.0
 20
505.0
 30
0.0
 11
1083.0
 21
482.0
 31
0.0
  0
LINE
  5
2C6
330
17
100
AcDbEntity
  8
TRACE_MAIN
100
AcDbLine
 10
546.0
 20
493.0
 30
0.0
 11
556.0
 21
522.0
 31
0.0
  0
LINE
  5
2C7
330
17
100
AcDbEntity
  8
TRACE_MAIN
100
AcDbLine
 10
494.0
 20
875.0
 30
0.0
 11
505.0
 21
843.0
 31
0.0
  0
LINE
  5
2C8
330
17
100
AcDbEntity
  8
TRACE_MAIN
100
AcDbLine
 10
1004.0
 20
824.0
 30
0.0
 11
1016.0
 21
853.0
 31
0.0
  0
LINE
  5
2C9
330
17
100
AcDbEntity
  8
TRACE_MAIN
100
AcDbLine
 10
365.0
 20
662.0
 30
0.0
 11
399.0
 21
651.0
 31
0.0
  0
LINE
  5
2CA
330
17
100
AcDbEntity
  8
TRACE_MAIN
100
AcDbLine
 10
637.0
 20
201.0
 30
0.0
 11
650.0
 21
163.0
 31
0.0
  0
LINE
  5
2CB
330
17
100
AcDbEntity
  8
TRACE_MAIN
100
AcDbLine
 10
640.0
 20
984.0
 30
0.0
 11
697.0
 21
993.0
 31
0.0
  0
LINE
  5
2CC
330
17
100
AcDbEntity
  8
TRACE_MAIN
100
AcDbLine
 10
1039.0
 20
465.0
 30
0.0
 11
1074.0
 21
455.0
 31
0.0
  0
LINE
  5
2CD
330
17
100
AcDbEntity
  8
TRACE_MAIN
100
AcDbLine
 10
478.0
 20
827.0
 30
0.0
 11
494.0
 21
780.0
 31
0.0
  0
LINE
  5
2CE
330
17
100
AcDbEntity
  8
TRACE_MAIN
100
AcDbLine
 10
1284.0
 20
925.0
 30
0.0
 11
1312.0
 21
929.0
 31
0.0
  0
LINE
  5
2CF
330
17
100
AcDbEntity
  8
TRACE_MAIN
100
AcDbLine
 10
509.0
 20
852.0
 30
0.0
 11
528.0
 21
787.0
 31
0.0
  0
LINE
  5
2D0
330
17
100
AcDbEntity
  8
TRACE_MAIN
100
AcDbLine
 10
194.0
 20
405.0
 30
0.0
 11
210.0
 21
371.0
 31
0.0
  0
LINE
  5
2D1
330
17
100
AcDbEntity
  8
TRACE_MAIN
100
AcDbLine
 10
1005.0
 20
840.0
 30
0.0
 11
1017.0
 21
870.0
 31
0.0
  0
LINE
  5
2D2
330
17
100
AcDbEntity
  8
TRACE_MAIN
100
AcDbLine
 10
417.0
 20
1128.0
 30
0.0
 11
463.0
 21
1119.0
 31
0.0
  0
LINE
  5
2D3
330
17
100
AcDbEntity
  8
TRACE_MAIN
100
AcDbLine
 10
686.0
 20
984.0
 30
0.0
 11
727.0
 21
988.0
 31
0.0
  0
LINE
  5
2D4
330
17
100
AcDbEntity
  8
TRACE_MAIN
100
AcDbLine
 10
1086.0
 20
1028.0
 30
0.0
 11
1124.0
 21
1023.0
 31
0.0
  0
LINE
  5
2D5
330
17
100
AcDbEntity
  8
TRACE_MAIN
100
AcDbLine
 10
842.0
 20
1081.0
 30
0.0
 11
875.0
 21
1075.0
 31
0.0
  0
LINE
  5
2D6
330
17
100
AcDbEntity
  8
TRACE_MAIN
100
AcDbLine
 10
1165.0
 20
84.0
 30
0.0
 11
1195.0
 21
74.0
 31
0.0
  0
LINE
  5
2D7
330
17
100
AcDbEntity
  8
TRACE_MAIN
100
AcDbLine
 10
1129.0
 20
854.0
 30
0.0
 11
1169.0
 21
877.0
 31
0.0
  0
LINE
  5
2D8
330
17
100
AcDbEntity
  8
TRACE_MAIN
100
AcDbLine
 10
1292.0
 20
925.0
 30
0.0
 11
1323.0
 21
929.0
 31
0.0
  0
LINE
  5
2D9
330
17
100
AcDbEntity
  8
TRACE_MAIN
100
AcDbLine
 10
108.0
 20
742.0
 30
0.0
 11
144.0
 21
738.0
 31
0.0
  0
LINE
  5
2DA
330
17
100
AcDbEntity
  8
TRACE_MAIN
100
AcDbLine
 10
902.0
 20
724.0
 30
0.0
 11
944.0
 21
730.0
 31
0.0
  0
LINE
  5
2DB
330
17
100
AcDbEntity
  8
TRACE_MAIN
100
AcDbLine
 10
1275.0
 20
897.0
 30
0.0
 11
1304.0
 21
923.0
 31
0.0
  0
MTEXT
  5
2DC
330
17
100
AcDbEntity
  8
TEXT
100
AcDbMText
 10
20.0
 20
20.0
 30
0.0
 40
20.0
 71
1
  1

  0
MTEXT
  5
2DD
330
17
100
AcDbEntity
  8
TEXT
100
AcDbMText
 10
20.0
 20
20.0
 30
0.0
 40
8.0
 71
1
  1
к НАМ-север φ1220
  0
MTEXT
  5
2DE
330
17
100
AcDbEntity
  8
TEXT
100
AcDbMText
 10
20.0
 20
20.0
 30
0.0
 40
8.0
 71
1
  1
Шурф №5
  0
MTEXT
  5
2DF
330
17
100
AcDbEntity
  8
TEXT
100
AcDbMText
 10
20.0
 20
20.0
 30
0.0
 40
8.0
 71
1
  1
к СКУ φ1220
  0
MTEXT
  5
2E0
330
17
100
AcDbEntity
  8
TEXT
100
AcDbMText
 10
20.0
 20
20.0
 30
0.0
 40
8.0
 71
1
  1
2-2-1
  0
MTEXT
  5
2E1
330
17
100
AcDbEntity
  8
TEXT
100
AcDbMText
 10
20.0
 20
20.0
 30
0.0
 40
8.0
 71
1
  1
2-2-1.4
  0
ENDSEC
  0
SECTION
  2
OBJECTS
  0
DICTIONARY
  5
A
330
0
100
AcDbDictionary
281
1
  3
ACAD_COLOR
350
B
  3
ACAD_GROUP
350
C
  3
ACAD_LAYOUT
350
D
  3
ACAD_MATERIAL
350
E
  3
ACAD_MLEADERSTYLE
350
F
  3
ACAD_MLINESTYLE
350
10
  3
ACAD_PLOTSETTINGS
350
11
  3
ACAD_PLOTSTYLENAME
350
12
  3
ACAD_SCALELIST
350
14
  3
ACAD_TABLESTYLE
350
15
  3
ACAD_VISUALSTYLE
350
16
  3
EZDXF_META
350
2D
  0
DICTIONARY
  5
B
330
A
100
AcDbDictionary
281
1
  0
DICTIONARY
  5
C
330
A
100
AcDbDictionary
281
1
  0
DICTIONARY
  5
D
330
A
100
AcDbDictionary
281
1
  3
Model
350
1A
  3
Layout1
350
1E
  0
DICTIONARY
  5
E
330
A
100
AcDbDictionary
281
1
  3
ByBlock
350
1F
  3
ByLayer
350
20
  3
Global
350
21
  0
DICTIONARY
  5
F
330
A
100
AcDbDictionary
281
1
  3
Standard
350
2C
  0
DICTIONARY
  5
10
330
A
100
AcDbDictionary
281
1
  3
Standard
350
22
  0
DICTIONARY
  5
11
330
A
100
AcDbDictionary
281
1
  0
ACDBDICTIONARYWDFLT
  5
12
330
A
100
AcDbDictionary
281
1
  3
Normal
350
13
100
AcDbDictionaryWithDefault
340
13
  0
ACDBPLACEHOLDER
  5
13
330
12
  0
DICTIONARY
  5
14
330
A
100
AcDbDictionary
281
1
  0
DICTIONARY
  5
15
330
A
100
AcDbDictionary
281
1
  0
DICTIONARY
  5
16
330
A
100
AcDbDictionary
281
1
  0
LAYOUT
  5
1A
330
D
100
AcDbPlotSettings
  1

  4
A3
  6

 40
7.5
 41
20.0
 42
7.5
 43
20.0
 44
420.0
 45
297.0
 46
0.0
 47
0.0
 48
0.0
 49
0.0
140
0.0
141
0.0
142
1.0
143
1.0
 70
1024
 72
1
 73
0
 74
5
  7

 75
16
 76
0
 77
2
 78
300
147
1.0
148
0.0
149
0.0
100
AcDbLayout
  1
Model
 70
1
 71
0
 10
0.0
 20
0.0
 11
420.0
 21
297.0
 12
0.0
 22
0.0
 32
0.0
 14
1e+20
 24
1e+20
 34
1e+20
 15
-1e+20
 25
-1e+20
 35
-1e+20
146
0.0
 13
0.0
 23
0.0
 33
0.0
 16
1.0
 26
0.0
 36
0.0
 17
0.0
 27
1.0
 37
0.0
 76
1
330
17
  0
LAYOUT
  5
1E
330
D
100
AcDbPlotSettings
  1

  4
A3
  6

 40
7.5
 41
20.0
 42
7.5
 43
20.0
 44
420.0
 45
297.0
 46
0.0
 47
0.0
 48
0.0
 49
0.0
140
0.0
141
0.0
142
1.0
143
1.0
 70
0
 72
1
 73
0
 74
5
  7

 75
16
 76
0
 77
2
 78
300
147
1.0
148
0.0
149
0.0
100
AcDbLayout
  1
Layout1
 70
1
 71
1
 10
0.0
 20
0.0
 11
420.0
 21
297.0
 12
0.0
 22
0.0
 32
0.0
 14
1e+20
 24
1e+20
 34
1e+20
 15
-1e+20
 25
-1e+20
 35
-1e+20
146
0.0
 13
0.0
 23
0.0
 33
0.0
 16
1.0
 26
0.0
 36
0.0
 17
0.0
 27
1.0
 37
0.0
 76
1
330
1B
  0
MATERIAL
  5
1F
102
{ACAD_REACTORS
330
E
102
}
330
E
100
AcDbMaterial
  1
ByBlock
  2

 70
0
 40
1.0
 71
1
 41
1.0
 91
-1023410177
 42
1.0
 72
1
  3

 73
1
 74
1
 75
1
 44
0.5
 73
0
 45
1.0
 46
1.0
 77
1
  4

 78
1
 79
1
170
1
 48
1.0
171
1
  6

172
1
173
1
174
1
140
1.0
141
1.0
175
1
  7

176
1
177
1
178
1
143
1.0
179
1
  8

270
1
271
1
272
1
145
1.0
146
1.0
273
1
  9

274
1
275
1
276
1
 42
1.0
 72
1
  3

 73
1
 74
1
 75
1
 94
63
  0
MATERIAL
  5
20
102
{ACAD_REACTORS
330
E
102
}
330
E
100
AcDbMaterial
  1
ByLayer
  2

 70
0
 40
1.0
 71
1
 41
1.0
 91
-1023410177
 42
1.0
 72
1
  3

 73
1
 74
1
 75
1
 44
0.5
 73
0
 45
1.0
 46
1.0
 77
1
  4

 78
1
 79
1
170
1
 48
1.0
171
1
  6

172
1
173
1
174
1
140
1.0
141
1.0
175
1
  7

176
1
177
1
178
1
143
1.0
179
1
  8

270
1
271
1
272
1
145
1.0
146
1.0
273
1
  9

274
1
275
1
276
1
 42
1.0
 72
1
  3

 73
1
 74
1
 75
1
 94
63
  0
MATERIAL
  5
21
102
{ACAD_REACTORS
330
E
102
}
330
E
100
AcDbMaterial
  1
Global
  2

 70
0
 40
1.0
 71
1
 41
1.0
 91
-1023410177
 42
1.0
 72
1
  3

 73
1
 74
1
 75
1
 44
0.5
 73
0
 45
1.0
 46
1.0
 77
1
  4

 78
1
 79
1
170
1
 48
1.0
171
1
  6

172
1
173
1
174
1
140
1.0
141
1.0
175
1
  7

176
1
177
1
178
1
143
1.0
179
1
  8

270
1
271
1
272
1
145
1.0
146
1.0
273
1
  9

274
1
275
1
276
1
 42
1.0
 72
1
  3

 73
1
 74
1
 75
1
 94
63
  0
MLINESTYLE
  5
22
102
{ACAD_REACTORS
330
10
102
}
330
10
100
AcDbMlineStyle
  2
Standard
 70
0
  3

 62
256
 51
90.0
 52
90.0
 71
2
 49
0.5
 62
256
  6
BYLAYER
 49
-0.5
 62
256
  6
BYLAYER
  0
MLEADERSTYLE
  5
2C
102
{ACAD_REACTORS
330
F
102
}
330
F
100
AcDbMLeaderStyle
179
2
170
2
171
1
172
0
 90
2
 40
0.0
 41
0.0
173
1
 91
-1056964608
 92
-2
290
1
 42
2.0
291
1
 43
8.0
  3
Standard
 44
4.0
300

342
29
174
1
175
1
176
0
178
1
 93
-1056964608
 45
4.0
292
0
297
0
 46
4.0
 94
-1056964608
 47
1.0
 49
1.0
140
1.0
294
1
141
0.0
177
0
142
1.0
295
0
296
0
143
3.75
271
0
272
9
273
9
  0
DICTIONARY
  5
2D
330
A
100
AcDbDictionary
280
1
281
1
  3
CREATED_BY_EZDXF
350
2E
  3
WRITTEN_BY_EZDXF
350
2E4
  0
DICTIONARYVAR
  5
2E
330
2D
100
DictionaryVariables
280
0
  1
1.4.3 @ 2026-03-08T18:08:15.453987+00:00
  0
DICTIONARYVAR
  5
2E4
330
2D
100
DictionaryVariables
280
0
  1
1.4.3 @ 2026-03-08T18:08:15.461801+00:00
  0
ENDSEC
  0
EOF
